%TF.GenerationSoftware,KiCad,Pcbnew,(6.0.1)*%
%TF.CreationDate,2024-02-25T10:31:20+01:00*%
%TF.ProjectId,Lin1,4c696e31-2e6b-4696-9361-645f70636258,rev?*%
%TF.SameCoordinates,Original*%
%TF.FileFunction,Soldermask,Bot*%
%TF.FilePolarity,Negative*%
%FSLAX46Y46*%
G04 Gerber Fmt 4.6, Leading zero omitted, Abs format (unit mm)*
G04 Created by KiCad (PCBNEW (6.0.1)) date 2024-02-25 10:31:20*
%MOMM*%
%LPD*%
G01*
G04 APERTURE LIST*
G04 Aperture macros list*
%AMRoundRect*
0 Rectangle with rounded corners*
0 $1 Rounding radius*
0 $2 $3 $4 $5 $6 $7 $8 $9 X,Y pos of 4 corners*
0 Add a 4 corners polygon primitive as box body*
4,1,4,$2,$3,$4,$5,$6,$7,$8,$9,$2,$3,0*
0 Add four circle primitives for the rounded corners*
1,1,$1+$1,$2,$3*
1,1,$1+$1,$4,$5*
1,1,$1+$1,$6,$7*
1,1,$1+$1,$8,$9*
0 Add four rect primitives between the rounded corners*
20,1,$1+$1,$2,$3,$4,$5,0*
20,1,$1+$1,$4,$5,$6,$7,0*
20,1,$1+$1,$6,$7,$8,$9,0*
20,1,$1+$1,$8,$9,$2,$3,0*%
%AMFreePoly0*
4,1,27,3.910709,0.923953,3.936361,0.879524,3.937500,0.866500,3.937500,-0.866500,3.919953,-0.914709,3.875524,-0.940361,3.862500,-0.941500,0.737500,-0.941500,0.689291,-0.923953,0.663639,-0.879524,0.662500,-0.866500,0.662500,-0.525000,-0.737500,-0.525000,-0.785709,-0.507453,-0.811361,-0.463024,-0.812500,-0.450000,-0.812500,0.450000,-0.794953,0.498209,-0.750524,0.523861,-0.737500,0.525000,
0.662500,0.525000,0.662500,0.866500,0.680047,0.914709,0.724476,0.940361,0.737500,0.941500,3.862500,0.941500,3.910709,0.923953,3.910709,0.923953,$1*%
G04 Aperture macros list end*
%ADD10C,5.090000*%
%ADD11RoundRect,0.325000X-0.537500X-0.425000X0.537500X-0.425000X0.537500X0.425000X-0.537500X0.425000X0*%
%ADD12RoundRect,0.325000X0.450000X-0.350000X0.450000X0.350000X-0.450000X0.350000X-0.450000X-0.350000X0*%
%ADD13RoundRect,0.325000X0.325000X0.450000X-0.325000X0.450000X-0.325000X-0.450000X0.325000X-0.450000X0*%
%ADD14C,10.150000*%
%ADD15RoundRect,0.325000X-0.450000X0.350000X-0.450000X-0.350000X0.450000X-0.350000X0.450000X0.350000X0*%
%ADD16O,1.293000X1.007250*%
%ADD17RoundRect,0.225000X-0.587500X-0.150000X0.587500X-0.150000X0.587500X0.150000X-0.587500X0.150000X0*%
%ADD18RoundRect,0.325000X-0.350000X-0.450000X0.350000X-0.450000X0.350000X0.450000X-0.350000X0.450000X0*%
%ADD19RoundRect,0.325000X0.475000X-0.337500X0.475000X0.337500X-0.475000X0.337500X-0.475000X-0.337500X0*%
%ADD20RoundRect,0.225000X0.150000X-0.512500X0.150000X0.512500X-0.150000X0.512500X-0.150000X-0.512500X0*%
%ADD21RoundRect,0.325000X0.337500X0.475000X-0.337500X0.475000X-0.337500X-0.475000X0.337500X-0.475000X0*%
%ADD22RoundRect,0.075000X0.650000X0.450000X-0.650000X0.450000X-0.650000X-0.450000X0.650000X-0.450000X0*%
%ADD23FreePoly0,180.000000*%
%ADD24RoundRect,0.325000X-0.337500X-0.475000X0.337500X-0.475000X0.337500X0.475000X-0.337500X0.475000X0*%
%ADD25RoundRect,0.325000X0.350000X0.450000X-0.350000X0.450000X-0.350000X-0.450000X0.350000X-0.450000X0*%
%ADD26RoundRect,0.075000X-0.469900X-0.774700X0.469900X-0.774700X0.469900X0.774700X-0.469900X0.774700X0*%
%ADD27RoundRect,0.075000X-0.749300X-1.066800X0.749300X-1.066800X0.749300X1.066800X-0.749300X1.066800X0*%
G04 APERTURE END LIST*
D10*
%TO.C,J2*%
X150000000Y-111750000D03*
X150000000Y-88250000D03*
%TD*%
D11*
%TO.C,C1*%
X149025000Y-93900000D03*
X151900000Y-93900000D03*
%TD*%
D12*
%TO.C,R1*%
X146700000Y-109300000D03*
X146700000Y-107300000D03*
%TD*%
D13*
%TO.C,R2*%
X146567000Y-105500000D03*
X144517000Y-105500000D03*
%TD*%
D14*
%TO.C,J1*%
X150000000Y-100000000D03*
%TD*%
D15*
%TO.C,R4*%
X140100000Y-95774000D03*
X140100000Y-97774000D03*
%TD*%
D16*
%TO.C,U1*%
X142400000Y-98700000D03*
X142400000Y-99970000D03*
X142400000Y-101240000D03*
%TD*%
D15*
%TO.C,R11*%
X154432000Y-104156000D03*
X154432000Y-106156000D03*
%TD*%
D17*
%TO.C,Q1*%
X150125000Y-108550000D03*
X150125000Y-106650000D03*
X152000000Y-107600000D03*
%TD*%
D18*
%TO.C,R7*%
X157496000Y-102870000D03*
X159496000Y-102870000D03*
%TD*%
D19*
%TO.C,C7*%
X160274000Y-99081500D03*
X160274000Y-97006500D03*
%TD*%
D20*
%TO.C,U2*%
X158496000Y-100451500D03*
X157546000Y-100451500D03*
X156596000Y-100451500D03*
X156596000Y-98176500D03*
X158496000Y-98176500D03*
%TD*%
%TO.C,U4*%
X142936000Y-106293500D03*
X141986000Y-106293500D03*
X141036000Y-106293500D03*
X141036000Y-104018500D03*
X142936000Y-104018500D03*
%TD*%
D21*
%TO.C,C4*%
X158009500Y-92964000D03*
X155934500Y-92964000D03*
%TD*%
D22*
%TO.C,U5*%
X146938000Y-91210000D03*
D23*
X146850500Y-92710000D03*
D22*
X146938000Y-94210000D03*
%TD*%
D15*
%TO.C,C2*%
X154432000Y-108220000D03*
X154432000Y-110220000D03*
%TD*%
D24*
%TO.C,C6*%
X149584500Y-91800000D03*
X151659500Y-91800000D03*
%TD*%
D25*
%TO.C,R9*%
X157972000Y-94996000D03*
X155972000Y-94996000D03*
%TD*%
D26*
%TO.C,RV1*%
X156150000Y-104995700D03*
D27*
X157100000Y-107472200D03*
D26*
X158050000Y-104995700D03*
%TD*%
D15*
%TO.C,R8*%
X153924000Y-92964000D03*
X153924000Y-94964000D03*
%TD*%
%TO.C,R12*%
X140100000Y-100092000D03*
X140100000Y-102092000D03*
%TD*%
G36*
X153830821Y-103325674D02*
G01*
X153830734Y-103327104D01*
X153805504Y-103382468D01*
X153817565Y-103441756D01*
X153862191Y-103482647D01*
X153907677Y-103488838D01*
X153909258Y-103490063D01*
X153908988Y-103492044D01*
X153907668Y-103492803D01*
X153898451Y-103494017D01*
X153796752Y-103541440D01*
X153717440Y-103620752D01*
X153670017Y-103722451D01*
X153666215Y-103751331D01*
X153664997Y-103752918D01*
X153663014Y-103752657D01*
X153662257Y-103751383D01*
X153654048Y-103699553D01*
X153611264Y-103656770D01*
X153551482Y-103647302D01*
X153500429Y-103671928D01*
X153498434Y-103671780D01*
X153497565Y-103669979D01*
X153498209Y-103668652D01*
X153587151Y-103587151D01*
X153827439Y-103324924D01*
X153829347Y-103324322D01*
X153830821Y-103325674D01*
G37*
M02*
