%TF.GenerationSoftware,KiCad,Pcbnew,(6.0.1)*%
%TF.CreationDate,2024-02-25T10:31:20+01:00*%
%TF.ProjectId,Lin1,4c696e31-2e6b-4696-9361-645f70636258,rev?*%
%TF.SameCoordinates,Original*%
%TF.FileFunction,Soldermask,Top*%
%TF.FilePolarity,Negative*%
%FSLAX46Y46*%
G04 Gerber Fmt 4.6, Leading zero omitted, Abs format (unit mm)*
G04 Created by KiCad (PCBNEW (6.0.1)) date 2024-02-25 10:31:20*
%MOMM*%
%LPD*%
G01*
G04 APERTURE LIST*
G04 Aperture macros list*
%AMRoundRect*
0 Rectangle with rounded corners*
0 $1 Rounding radius*
0 $2 $3 $4 $5 $6 $7 $8 $9 X,Y pos of 4 corners*
0 Add a 4 corners polygon primitive as box body*
4,1,4,$2,$3,$4,$5,$6,$7,$8,$9,$2,$3,0*
0 Add four circle primitives for the rounded corners*
1,1,$1+$1,$2,$3*
1,1,$1+$1,$4,$5*
1,1,$1+$1,$6,$7*
1,1,$1+$1,$8,$9*
0 Add four rect primitives between the rounded corners*
20,1,$1+$1,$2,$3,$4,$5,0*
20,1,$1+$1,$4,$5,$6,$7,0*
20,1,$1+$1,$6,$7,$8,$9,0*
20,1,$1+$1,$8,$9,$2,$3,0*%
%AMFreePoly0*
4,1,215,0.767300,12.195887,1.446896,12.134039,2.121981,12.034351,2.790448,11.897134,3.450213,11.722817,4.099218,11.511942,4.735440,11.265168,5.356895,10.983263,5.961645,10.667108,6.547803,10.317687,7.113543,9.936091,7.657099,9.523510,8.176776,9.081230,8.670954,8.610630,9.138093,8.113178,9.576734,7.590426,9.985511,7.044003,10.363148,6.475613,10.708468,5.887030,11.020393,5.280088,
11.297953,4.656680,11.540279,4.018750,11.746618,3.368288,11.916325,2.707323,12.048872,2.037914,12.143844,1.362150,12.200946,0.682139,12.220000,0.000000,12.215236,-0.341202,12.177143,-1.022543,12.101076,-1.700695,11.987272,-2.373544,11.836086,-3.038990,11.647990,-3.694960,11.423570,-4.339407,11.163525,-4.970322,10.868668,-5.585737,10.539917,-6.183733,10.178298,-6.762445,9.784937,-7.320068,
9.361063,-7.854865,8.907997,-8.365166,8.427151,-8.849380,7.920025,-9.305998,7.388201,-9.733596,6.833337,-10.130839,6.257164,-10.496490,5.661478,-10.829408,5.048136,-11.128554,4.419052,-11.392997,3.776188,-11.621911,3.121547,-11.814582,2.457172,-11.970410,1.785135,-12.088908,1.107530,-12.169707,0.426472,-12.212556,-0.255916,-12.217320,-0.937507,-12.183985,-1.616173,-12.112654,-2.289800,-12.003550,
-2.956286,-11.857014,-3.613552,-11.673502,-4.259550,-11.453586,-4.892265,-11.197953,-5.509724,-10.907399,-6.110000,-10.582830,-6.691223,-10.225260,-7.251579,-9.835802,-7.789321,-9.415672,-8.302773,-8.966179,-8.790332,-8.488725,-9.250480,-7.984800,-9.681779,-7.455974,-10.082887,-6.903897,-10.452551,-6.330290,-10.789620,-5.736942,-11.093041,-5.125704,-11.361869,-4.498482,-11.595265,-3.857231,-11.792502,-3.203952,
-11.952964,-2.540681,-12.076151,-1.869487,-12.161679,-1.192463,-12.209281,-0.511720,-12.213487,-0.210538,-9.277611,-0.210538,-9.244687,-0.808805,-9.173223,-1.403700,-9.063519,-1.992744,-8.916031,-2.573480,-8.731374,-3.143488,-8.510317,-3.700391,-8.253784,-4.241869,-7.962842,-4.765663,-7.638705,-5.269590,-7.282725,-5.751549,-6.896384,-6.209532,-6.481294,-6.641629,-6.039185,-7.046038,-5.571900,-7.421074,
-5.081387,-7.765173,-4.569691,-8.076901,-4.038945,-8.354958,-3.491361,-8.598186,-2.929223,-8.805569,-2.354874,-8.976245,-1.770707,-9.109500,-1.179160,-9.204780,-0.582696,-9.261688,0.016197,-9.279986,0.615022,-9.259598,1.211283,-9.200608,1.802495,-9.103264,2.386192,-8.967970,2.959942,-8.795291,3.521353,-8.585946,4.068084,-8.340809,4.597856,-8.060900,5.108461,-7.747388,5.597770,-7.401579,
6.063743,-7.024914,6.504438,-6.618964,6.918017,-6.185421,7.302757,-5.726093,7.657053,-5.242894,7.979429,-4.737838,8.268541,-4.213032,8.523182,-3.670662,8.742293,-3.112991,8.924959,-2.542342,9.070419,-1.961094,9.178067,-1.371671,9.247454,-0.776530,9.278290,-0.178152,9.280000,0.000000,9.260657,0.598860,9.202708,1.195223,9.106396,1.786604,8.972121,2.370537,8.800444,2.944587,
8.592079,3.506363,8.347896,4.053521,8.068913,4.583781,7.756292,5.094932,7.411338,5.584843,7.035487,6.051473,6.630306,6.492876,6.197486,6.907211,5.738830,7.292752,5.256250,7.647891,4.751758,7.971148,4.227457,8.261175,3.685532,8.516763,3.128244,8.736847,2.557915,8.920509,1.976922,9.066983,1.387688,9.175659,0.792669,9.246084,0.194346,9.277965,-0.404788,9.271167,
-1.002234,9.225721,-1.595502,9.141815,-2.182119,9.019798,-2.759639,8.860180,-3.325655,8.663626,-3.877806,8.430956,-4.413793,8.163139,-4.931379,7.861291,-5.428407,7.526672,-5.902806,7.160676,-6.352597,6.764829,-6.775906,6.340781,-7.170968,5.890299,-7.536135,5.415262,-7.869886,4.917651,-8.170830,4.399539,-8.437711,3.863086,-8.669418,3.310529,-8.864983,2.744171,-9.023593,2.166373,
-9.144585,1.579544,-9.227456,0.986131,-9.271860,0.388606,-9.277611,-0.210538,-12.213487,-0.210538,-12.218809,0.170618,-12.190233,0.852424,-12.123642,1.531572,-12.019243,2.205944,-11.877363,2.873437,-11.698444,3.531969,-11.483044,4.179486,-11.231834,4.813970,-10.945598,5.433442,-10.625228,6.035970,-10.271724,6.619674,-9.886188,7.182736,-9.469822,7.723398,-9.023924,8.239975,-8.549886,8.730856,
-8.049185,9.194510,-7.523383,9.629491,-6.974120,10.034443,-6.403108,10.408103,-5.812128,10.749306,-5.203023,11.056987,-4.577693,11.330187,-3.938087,11.568054,-3.286200,11.769847,-2.624066,11.934935,-1.953748,12.062805,-1.277338,12.153058,-0.596944,12.205411,0.085311,12.219702,0.767300,12.195887,0.767300,12.195887,$1*%
G04 Aperture macros list end*
%ADD10RoundRect,0.325000X0.450000X-0.325000X0.450000X0.325000X-0.450000X0.325000X-0.450000X-0.325000X0*%
%ADD11RoundRect,0.225000X0.512500X0.150000X-0.512500X0.150000X-0.512500X-0.150000X0.512500X-0.150000X0*%
%ADD12RoundRect,0.325000X-0.325000X-0.450000X0.325000X-0.450000X0.325000X0.450000X-0.325000X0.450000X0*%
%ADD13RoundRect,0.075000X1.500000X-1.000000X1.500000X1.000000X-1.500000X1.000000X-1.500000X-1.000000X0*%
%ADD14RoundRect,0.324999X1.425001X-0.450001X1.425001X0.450001X-1.425001X0.450001X-1.425001X-0.450001X0*%
%ADD15RoundRect,0.325000X0.450000X-0.350000X0.450000X0.350000X-0.450000X0.350000X-0.450000X-0.350000X0*%
%ADD16RoundRect,0.075000X-0.600000X1.100000X-0.600000X-1.100000X0.600000X-1.100000X0.600000X1.100000X0*%
%ADD17RoundRect,0.075000X-2.900000X3.200000X-2.900000X-3.200000X2.900000X-3.200000X2.900000X3.200000X0*%
%ADD18C,1.674000*%
%ADD19C,5.090000*%
%ADD20FreePoly0,0.000000*%
%ADD21RoundRect,0.325000X0.337500X0.475000X-0.337500X0.475000X-0.337500X-0.475000X0.337500X-0.475000X0*%
%ADD22O,1.293000X1.007250*%
G04 APERTURE END LIST*
D10*
%TO.C,C3*%
X144300000Y-101325000D03*
X144300000Y-99275000D03*
%TD*%
%TO.C,R3*%
X144300000Y-97325000D03*
X144300000Y-95275000D03*
%TD*%
D11*
%TO.C,U3*%
X149137500Y-102590000D03*
X149137500Y-101640000D03*
X149137500Y-100690000D03*
X146862500Y-100690000D03*
X146862500Y-102590000D03*
%TD*%
D12*
%TO.C,C5*%
X146375000Y-104500000D03*
X148425000Y-104500000D03*
%TD*%
D13*
%TO.C,-1*%
X152530000Y-93030000D03*
%TD*%
%TO.C,+1*%
X152000000Y-106950000D03*
%TD*%
D14*
%TO.C,R6*%
X147900000Y-98640000D03*
X147900000Y-92540000D03*
%TD*%
D15*
%TO.C,R5*%
X158100000Y-101000000D03*
X158100000Y-99000000D03*
%TD*%
D16*
%TO.C,Q2*%
X155880000Y-95700000D03*
D17*
X153600000Y-102000000D03*
D16*
X153600000Y-95700000D03*
X151320000Y-95700000D03*
%TD*%
D18*
%TO.C,J2*%
X156096000Y-91364000D03*
X139250000Y-100000000D03*
D19*
X150000000Y-111750000D03*
D18*
X157620000Y-107366000D03*
D19*
X150000000Y-88250000D03*
D20*
X150000000Y-100000000D03*
D18*
X142634000Y-92126000D03*
X160750000Y-100000000D03*
X143142000Y-108128000D03*
%TD*%
D21*
%TO.C,C8*%
X148437500Y-106800000D03*
X146362500Y-106800000D03*
%TD*%
D15*
%TO.C,R10*%
X144300000Y-105300000D03*
X144300000Y-103300000D03*
%TD*%
D22*
%TO.C,U1*%
X142400000Y-98700000D03*
X142400000Y-99970000D03*
X142400000Y-101240000D03*
%TD*%
G36*
X149318868Y-99413999D02*
G01*
X149318868Y-99415999D01*
X149317465Y-99416972D01*
X149317459Y-99416973D01*
X149317130Y-99417000D01*
X146482870Y-99417000D01*
X146481138Y-99416000D01*
X146481138Y-99414000D01*
X146482870Y-99413000D01*
X149317136Y-99412999D01*
X149318868Y-99413999D01*
G37*
G36*
X149318862Y-97864000D02*
G01*
X149318862Y-97866000D01*
X149317130Y-97867000D01*
X146482864Y-97867001D01*
X146481132Y-97866001D01*
X146481132Y-97864001D01*
X146482535Y-97863028D01*
X146482541Y-97863027D01*
X146482870Y-97863000D01*
X149317130Y-97863000D01*
X149318862Y-97864000D01*
G37*
G36*
X149318868Y-93313999D02*
G01*
X149318868Y-93315999D01*
X149317465Y-93316972D01*
X149317459Y-93316973D01*
X149317130Y-93317000D01*
X146482870Y-93317000D01*
X146481138Y-93316000D01*
X146481138Y-93314000D01*
X146482870Y-93313000D01*
X149317136Y-93312999D01*
X149318868Y-93313999D01*
G37*
G36*
X149318862Y-91764000D02*
G01*
X149318862Y-91766000D01*
X149317130Y-91767000D01*
X146482864Y-91767001D01*
X146481132Y-91766001D01*
X146481132Y-91764001D01*
X146482535Y-91763028D01*
X146482541Y-91763027D01*
X146482870Y-91763000D01*
X149317130Y-91763000D01*
X149318862Y-91764000D01*
G37*
M02*
