%TF.GenerationSoftware,KiCad,Pcbnew,(6.0.1)*%
%TF.CreationDate,2024-02-25T12:41:37+01:00*%
%TF.ProjectId,Lin1,4c696e31-2e6b-4696-9361-645f70636258,rev?*%
%TF.SameCoordinates,Original*%
%TF.FileFunction,Copper,L2,Bot*%
%TF.FilePolarity,Positive*%
%FSLAX46Y46*%
G04 Gerber Fmt 4.6, Leading zero omitted, Abs format (unit mm)*
G04 Created by KiCad (PCBNEW (6.0.1)) date 2024-02-25 12:41:37*
%MOMM*%
%LPD*%
G01*
G04 APERTURE LIST*
G04 Aperture macros list*
%AMRoundRect*
0 Rectangle with rounded corners*
0 $1 Rounding radius*
0 $2 $3 $4 $5 $6 $7 $8 $9 X,Y pos of 4 corners*
0 Add a 4 corners polygon primitive as box body*
4,1,4,$2,$3,$4,$5,$6,$7,$8,$9,$2,$3,0*
0 Add four circle primitives for the rounded corners*
1,1,$1+$1,$2,$3*
1,1,$1+$1,$4,$5*
1,1,$1+$1,$6,$7*
1,1,$1+$1,$8,$9*
0 Add four rect primitives between the rounded corners*
20,1,$1+$1,$2,$3,$4,$5,0*
20,1,$1+$1,$4,$5,$6,$7,0*
20,1,$1+$1,$6,$7,$8,$9,0*
20,1,$1+$1,$8,$9,$2,$3,0*%
%AMFreePoly0*
4,1,9,3.862500,-0.866500,0.737500,-0.866500,0.737500,-0.450000,-0.737500,-0.450000,-0.737500,0.450000,0.737500,0.450000,0.737500,0.866500,3.862500,0.866500,3.862500,-0.866500,3.862500,-0.866500,$1*%
G04 Aperture macros list end*
%TA.AperFunction,ComponentPad*%
%ADD10C,4.940000*%
%TD*%
%TA.AperFunction,SMDPad,CuDef*%
%ADD11RoundRect,0.250000X-0.537500X-0.425000X0.537500X-0.425000X0.537500X0.425000X-0.537500X0.425000X0*%
%TD*%
%TA.AperFunction,SMDPad,CuDef*%
%ADD12RoundRect,0.250000X0.450000X-0.350000X0.450000X0.350000X-0.450000X0.350000X-0.450000X-0.350000X0*%
%TD*%
%TA.AperFunction,SMDPad,CuDef*%
%ADD13RoundRect,0.250000X0.325000X0.450000X-0.325000X0.450000X-0.325000X-0.450000X0.325000X-0.450000X0*%
%TD*%
%TA.AperFunction,SMDPad,CuDef*%
%ADD14C,10.000000*%
%TD*%
%TA.AperFunction,SMDPad,CuDef*%
%ADD15RoundRect,0.250000X-0.450000X0.350000X-0.450000X-0.350000X0.450000X-0.350000X0.450000X0.350000X0*%
%TD*%
%TA.AperFunction,ComponentPad*%
%ADD16O,1.143000X0.857250*%
%TD*%
%TA.AperFunction,SMDPad,CuDef*%
%ADD17RoundRect,0.150000X-0.587500X-0.150000X0.587500X-0.150000X0.587500X0.150000X-0.587500X0.150000X0*%
%TD*%
%TA.AperFunction,SMDPad,CuDef*%
%ADD18RoundRect,0.250000X-0.350000X-0.450000X0.350000X-0.450000X0.350000X0.450000X-0.350000X0.450000X0*%
%TD*%
%TA.AperFunction,SMDPad,CuDef*%
%ADD19RoundRect,0.250000X0.475000X-0.337500X0.475000X0.337500X-0.475000X0.337500X-0.475000X-0.337500X0*%
%TD*%
%TA.AperFunction,SMDPad,CuDef*%
%ADD20RoundRect,0.150000X0.150000X-0.512500X0.150000X0.512500X-0.150000X0.512500X-0.150000X-0.512500X0*%
%TD*%
%TA.AperFunction,SMDPad,CuDef*%
%ADD21RoundRect,0.250000X0.337500X0.475000X-0.337500X0.475000X-0.337500X-0.475000X0.337500X-0.475000X0*%
%TD*%
%TA.AperFunction,SMDPad,CuDef*%
%ADD22R,1.300000X0.900000*%
%TD*%
%TA.AperFunction,SMDPad,CuDef*%
%ADD23FreePoly0,180.000000*%
%TD*%
%TA.AperFunction,SMDPad,CuDef*%
%ADD24RoundRect,0.250000X-0.337500X-0.475000X0.337500X-0.475000X0.337500X0.475000X-0.337500X0.475000X0*%
%TD*%
%TA.AperFunction,SMDPad,CuDef*%
%ADD25RoundRect,0.250000X0.350000X0.450000X-0.350000X0.450000X-0.350000X-0.450000X0.350000X-0.450000X0*%
%TD*%
%TA.AperFunction,SMDPad,CuDef*%
%ADD26R,0.939800X1.549400*%
%TD*%
%TA.AperFunction,SMDPad,CuDef*%
%ADD27R,1.498600X2.133600*%
%TD*%
%TA.AperFunction,ViaPad*%
%ADD28C,1.000000*%
%TD*%
%TA.AperFunction,ViaPad*%
%ADD29C,0.800000*%
%TD*%
%TA.AperFunction,Conductor*%
%ADD30C,0.500000*%
%TD*%
%TA.AperFunction,Conductor*%
%ADD31C,0.250000*%
%TD*%
G04 APERTURE END LIST*
D10*
X150000000Y-111750000D03*
X150000000Y-88250000D03*
D11*
X149025000Y-93900000D03*
X151900000Y-93900000D03*
D12*
X146700000Y-109300000D03*
X146700000Y-107300000D03*
D13*
X146567000Y-105500000D03*
X144517000Y-105500000D03*
D14*
X150000000Y-100000000D03*
D15*
X140100000Y-95774000D03*
X140100000Y-97774000D03*
D16*
X142400000Y-98700000D03*
X142400000Y-99970000D03*
X142400000Y-101240000D03*
D15*
X154432000Y-104156000D03*
X154432000Y-106156000D03*
D17*
X150125000Y-108550000D03*
X150125000Y-106650000D03*
X152000000Y-107600000D03*
D18*
X157496000Y-102870000D03*
X159496000Y-102870000D03*
D19*
X160274000Y-99081500D03*
X160274000Y-97006500D03*
D20*
X158496000Y-100451500D03*
X157546000Y-100451500D03*
X156596000Y-100451500D03*
X156596000Y-98176500D03*
X158496000Y-98176500D03*
X142936000Y-106293500D03*
X141986000Y-106293500D03*
X141036000Y-106293500D03*
X141036000Y-104018500D03*
X142936000Y-104018500D03*
D21*
X158009500Y-92964000D03*
X155934500Y-92964000D03*
D22*
X146938000Y-91210000D03*
D23*
X146850500Y-92710000D03*
D22*
X146938000Y-94210000D03*
D15*
X154432000Y-108220000D03*
X154432000Y-110220000D03*
D24*
X149584500Y-91800000D03*
X151659500Y-91800000D03*
D25*
X157972000Y-94996000D03*
X155972000Y-94996000D03*
D26*
X156150000Y-104995700D03*
D27*
X157100000Y-107472200D03*
D26*
X158050000Y-104995700D03*
D15*
X153924000Y-92964000D03*
X153924000Y-94964000D03*
X140100000Y-100092000D03*
X140100000Y-102092000D03*
D28*
X155956000Y-109982000D03*
X138938000Y-101092000D03*
X144780000Y-90932000D03*
X154178000Y-90170000D03*
X143100000Y-108300000D03*
X160600000Y-100700000D03*
X150047000Y-104444000D03*
D29*
X150368000Y-93980000D03*
X157734000Y-96774000D03*
D30*
X157546000Y-101158000D02*
X157546000Y-100451500D01*
X144117000Y-105100000D02*
X144517000Y-105500000D01*
X152548000Y-91800000D02*
X154178000Y-90170000D01*
X141986000Y-107586000D02*
X142700000Y-108300000D01*
X138938000Y-101092000D02*
X139100000Y-101092000D01*
X154432000Y-110220000D02*
X155718000Y-110220000D01*
X150125000Y-106750000D02*
X149450000Y-106750000D01*
X159496000Y-102600000D02*
X158496000Y-101600000D01*
X151659500Y-91440000D02*
X151659500Y-93580000D01*
X154432000Y-110220000D02*
X152030000Y-110220000D01*
X152030000Y-110220000D02*
X150000000Y-112250000D01*
X142700000Y-108300000D02*
X143100000Y-108300000D01*
X160600000Y-100700000D02*
X160600000Y-100656000D01*
X157988000Y-101600000D02*
X157546000Y-101158000D01*
X160274000Y-100330000D02*
X160274000Y-99081500D01*
X160274000Y-101838000D02*
X159496000Y-102616000D01*
X150000000Y-112250000D02*
X150000000Y-111800000D01*
X141986000Y-106293500D02*
X141986000Y-105614000D01*
X159496000Y-102870000D02*
X159496000Y-102600000D01*
X151659500Y-93580000D02*
X151805500Y-93726000D01*
X141986000Y-105614000D02*
X142500000Y-105100000D01*
X148000000Y-109800000D02*
X147200000Y-110600000D01*
X141986000Y-106293500D02*
X141986000Y-107586000D01*
X144780000Y-90932000D02*
X145058000Y-91210000D01*
X145400000Y-110600000D02*
X143142000Y-108342000D01*
X158496000Y-101600000D02*
X157988000Y-101600000D01*
X149450000Y-106750000D02*
X148000000Y-108200000D01*
X139100000Y-101092000D02*
X140100000Y-102092000D01*
X148000000Y-108200000D02*
X148000000Y-109800000D01*
X142400000Y-99970000D02*
X142076000Y-99970000D01*
X142500000Y-105100000D02*
X144117000Y-105100000D01*
X145058000Y-91210000D02*
X146938000Y-91210000D01*
X142222000Y-99970000D02*
X140100000Y-102092000D01*
X160600000Y-100656000D02*
X160274000Y-100330000D01*
X142400000Y-99970000D02*
X142222000Y-99970000D01*
X151659500Y-91800000D02*
X152548000Y-91800000D01*
X147200000Y-110600000D02*
X145400000Y-110600000D01*
X160274000Y-99081500D02*
X160274000Y-101838000D01*
X150000000Y-111800000D02*
X148000000Y-109800000D01*
X155718000Y-110220000D02*
X155956000Y-109982000D01*
X146850500Y-92710000D02*
X146090000Y-92710000D01*
X148930500Y-98930500D02*
X150000000Y-100000000D01*
X145200000Y-95200000D02*
X150000000Y-100000000D01*
X148930500Y-93726000D02*
X148930500Y-98930500D01*
X145200000Y-93600000D02*
X145200000Y-95200000D01*
X146090000Y-92710000D02*
X145200000Y-93600000D01*
D31*
X150876000Y-94742000D02*
X151042000Y-94742000D01*
X151042000Y-94742000D02*
X151150000Y-94850000D01*
X151150000Y-94850000D02*
X152318000Y-94850000D01*
X150368000Y-94234000D02*
X150876000Y-94742000D01*
X152318000Y-94850000D02*
X152432000Y-94964000D01*
X152432000Y-94964000D02*
X153924000Y-94964000D01*
X159025500Y-97006500D02*
X158496000Y-97536000D01*
X147066000Y-104394000D02*
X147828000Y-105156000D01*
X148590000Y-91186000D02*
X147066000Y-89662000D01*
X153162000Y-105410000D02*
X148082000Y-105410000D01*
X142400000Y-96172000D02*
X142400000Y-91788000D01*
X142002000Y-95774000D02*
X142400000Y-96172000D01*
X147900000Y-93000000D02*
X147900000Y-93300000D01*
X146558000Y-104394000D02*
X147066000Y-104394000D01*
X154432000Y-104156000D02*
X154416000Y-104156000D01*
X146990000Y-94210000D02*
X146938000Y-94210000D01*
X146182500Y-104018500D02*
X146558000Y-104394000D01*
X155956000Y-99314000D02*
X155448000Y-99822000D01*
X147900000Y-93300000D02*
X146990000Y-94210000D01*
X148900000Y-91800000D02*
X148590000Y-92110000D01*
X154432000Y-103378000D02*
X154432000Y-104156000D01*
X147066000Y-89662000D02*
X144526000Y-89662000D01*
X149584500Y-91800000D02*
X148900000Y-91800000D01*
X140100000Y-95774000D02*
X142002000Y-95774000D01*
X158496000Y-97536000D02*
X158496000Y-98176500D01*
X142400000Y-96172000D02*
X142400000Y-98700000D01*
X160274000Y-97006500D02*
X159025500Y-97006500D01*
X155448000Y-102362000D02*
X154432000Y-103378000D01*
X155448000Y-99822000D02*
X155448000Y-102362000D01*
X144018000Y-102870000D02*
X144018000Y-99568000D01*
X148590000Y-92110000D02*
X148590000Y-92310000D01*
X144018000Y-99568000D02*
X143150000Y-98700000D01*
X154416000Y-104156000D02*
X153162000Y-105410000D01*
X143150000Y-98700000D02*
X142400000Y-98700000D01*
X144526000Y-89662000D02*
X142494000Y-91694000D01*
X142936000Y-104018500D02*
X146182500Y-104018500D01*
X148082000Y-105410000D02*
X147828000Y-105156000D01*
X142936000Y-104018500D02*
X142936000Y-103952000D01*
X148590000Y-92310000D02*
X147900000Y-93000000D01*
X142400000Y-91788000D02*
X142494000Y-91694000D01*
X142936000Y-103952000D02*
X144018000Y-102870000D01*
X148590000Y-91186000D02*
X148590000Y-92110000D01*
X158496000Y-98176500D02*
X157358500Y-99314000D01*
X157358500Y-99314000D02*
X155956000Y-99314000D01*
X156210000Y-101854000D02*
X156210000Y-103632000D01*
X152800000Y-107700000D02*
X153300000Y-107200000D01*
X156972000Y-103886000D02*
X157226000Y-104140000D01*
X156596000Y-100451500D02*
X156596000Y-101468000D01*
X157226000Y-104140000D02*
X157226000Y-107472200D01*
X156596000Y-101468000D02*
X156210000Y-101854000D01*
X153300000Y-107200000D02*
X156827800Y-107200000D01*
X156827800Y-107200000D02*
X157100000Y-107472200D01*
X156210000Y-103632000D02*
X156464000Y-103886000D01*
X152000000Y-107700000D02*
X152800000Y-107700000D01*
X156464000Y-103886000D02*
X156972000Y-103886000D01*
X159258000Y-99689500D02*
X158496000Y-100451500D01*
X159512000Y-98044000D02*
X159258000Y-98298000D01*
X159258000Y-98298000D02*
X159258000Y-99689500D01*
X157972000Y-94996000D02*
X157734000Y-95234000D01*
X160274000Y-94996000D02*
X161290000Y-96012000D01*
X161290000Y-97790000D02*
X161036000Y-98044000D01*
X158009500Y-92964000D02*
X158009500Y-94958500D01*
X157972000Y-94996000D02*
X160274000Y-94996000D01*
X161036000Y-98044000D02*
X159512000Y-98044000D01*
X157734000Y-95234000D02*
X157734000Y-96774000D01*
X161290000Y-96012000D02*
X161290000Y-97790000D01*
X155934500Y-94958500D02*
X155972000Y-94996000D01*
X155934500Y-92964000D02*
X155934500Y-94958500D01*
X156596000Y-97039000D02*
X156596000Y-98176500D01*
X155972000Y-96415000D02*
X156596000Y-97039000D01*
X155934500Y-92964000D02*
X153924000Y-92964000D01*
X155972000Y-94996000D02*
X155972000Y-96415000D01*
X138100000Y-98628000D02*
X138954000Y-97774000D01*
X138954000Y-97774000D02*
X140100000Y-97774000D01*
X138430000Y-102870000D02*
X138430000Y-102030000D01*
X138430000Y-102030000D02*
X138100000Y-101700000D01*
X141036000Y-104018500D02*
X139578500Y-104018500D01*
X140100000Y-100092000D02*
X140100000Y-97774000D01*
X139578500Y-104018500D02*
X138430000Y-102870000D01*
X138100000Y-101700000D02*
X138100000Y-98628000D01*
X147017000Y-105950000D02*
X151150000Y-105950000D01*
X151400000Y-106750000D02*
X150125000Y-108025000D01*
X146567000Y-105500000D02*
X147017000Y-105950000D01*
X146567000Y-107167000D02*
X146700000Y-107300000D01*
X151150000Y-105950000D02*
X151400000Y-106200000D01*
X146567000Y-105500000D02*
X146567000Y-107167000D01*
X151400000Y-106200000D02*
X151400000Y-106750000D01*
X150125000Y-108025000D02*
X150125000Y-108650000D01*
X157988000Y-108966000D02*
X158750000Y-108204000D01*
X155702000Y-108966000D02*
X157988000Y-108966000D01*
X158750000Y-105361700D02*
X158176000Y-104787700D01*
X158750000Y-108204000D02*
X158750000Y-105361700D01*
X157496000Y-102362000D02*
X158176000Y-103042000D01*
X158176000Y-103042000D02*
X158176000Y-104787700D01*
X154956000Y-108220000D02*
X155702000Y-108966000D01*
X158176000Y-104968000D02*
X158176000Y-104787700D01*
X154432000Y-108220000D02*
X154956000Y-108220000D01*
X141986000Y-102870000D02*
X141986000Y-104648000D01*
X141036000Y-105598000D02*
X141036000Y-106293500D01*
X141986000Y-104648000D02*
X141036000Y-105598000D01*
X142400000Y-102456000D02*
X141986000Y-102870000D01*
X142400000Y-101240000D02*
X142400000Y-102456000D01*
X156276000Y-104787700D02*
X155800300Y-104787700D01*
X155800300Y-104787700D02*
X154432000Y-106156000D01*
X145942500Y-109300000D02*
X146700000Y-109300000D01*
X142936000Y-106293500D02*
X145942500Y-109300000D01*
%TA.AperFunction,Conductor*%
G36*
X142045855Y-105588216D02*
G01*
X142102691Y-105630763D01*
X142127502Y-105697283D01*
X142127726Y-105711216D01*
X142127694Y-105712035D01*
X142127500Y-105714498D01*
X142127500Y-106872502D01*
X142127693Y-106874950D01*
X142127693Y-106874958D01*
X142129890Y-106902866D01*
X142130438Y-106909831D01*
X142176855Y-107069601D01*
X142180892Y-107076427D01*
X142257509Y-107205980D01*
X142257511Y-107205983D01*
X142261547Y-107212807D01*
X142379193Y-107330453D01*
X142386017Y-107334489D01*
X142386020Y-107334491D01*
X142493589Y-107398107D01*
X142522399Y-107415145D01*
X142530010Y-107417356D01*
X142530012Y-107417357D01*
X142582231Y-107432528D01*
X142682169Y-107461562D01*
X142688574Y-107462066D01*
X142688579Y-107462067D01*
X142717042Y-107464307D01*
X142717050Y-107464307D01*
X142719498Y-107464500D01*
X143152502Y-107464500D01*
X143153868Y-107464392D01*
X143222573Y-107481668D01*
X143247759Y-107501163D01*
X145438848Y-109692253D01*
X145446386Y-109700536D01*
X145450500Y-109707018D01*
X145456280Y-109712445D01*
X145456281Y-109712447D01*
X145462458Y-109718247D01*
X145498424Y-109779459D01*
X145501533Y-109797097D01*
X145502474Y-109806166D01*
X145558450Y-109973946D01*
X145651522Y-110124348D01*
X145776697Y-110249305D01*
X145782927Y-110253145D01*
X145782928Y-110253146D01*
X145920090Y-110337694D01*
X145927262Y-110342115D01*
X145991962Y-110363575D01*
X146088611Y-110395632D01*
X146088613Y-110395632D01*
X146095139Y-110397797D01*
X146101975Y-110398497D01*
X146101978Y-110398498D01*
X146145031Y-110402909D01*
X146199600Y-110408500D01*
X147200400Y-110408500D01*
X147203646Y-110408163D01*
X147203650Y-110408163D01*
X147299308Y-110398238D01*
X147299312Y-110398237D01*
X147306166Y-110397526D01*
X147312702Y-110395345D01*
X147312704Y-110395345D01*
X147444806Y-110351272D01*
X147473946Y-110341550D01*
X147624348Y-110248478D01*
X147749305Y-110123303D01*
X147842115Y-109972738D01*
X147897797Y-109804861D01*
X147898593Y-109797097D01*
X147906671Y-109718247D01*
X147908500Y-109700400D01*
X147908500Y-108899600D01*
X147908163Y-108896350D01*
X147898238Y-108800692D01*
X147898237Y-108800688D01*
X147897526Y-108793834D01*
X147888408Y-108766502D01*
X147843868Y-108633002D01*
X147841550Y-108626054D01*
X147748478Y-108475652D01*
X147661891Y-108389216D01*
X147627812Y-108326934D01*
X147632815Y-108256114D01*
X147661736Y-108211025D01*
X147744134Y-108128483D01*
X147749305Y-108123303D01*
X147766822Y-108094886D01*
X147838275Y-107978968D01*
X147838276Y-107978966D01*
X147842115Y-107972738D01*
X147897797Y-107804861D01*
X147898819Y-107794892D01*
X147904647Y-107738001D01*
X147908500Y-107700400D01*
X147908500Y-106899600D01*
X147905943Y-106874958D01*
X147898238Y-106800692D01*
X147898237Y-106800688D01*
X147897526Y-106793834D01*
X147895345Y-106787297D01*
X147895344Y-106787292D01*
X147882694Y-106749375D01*
X147880110Y-106678426D01*
X147916294Y-106617342D01*
X147979759Y-106585518D01*
X148002218Y-106583500D01*
X150366405Y-106583500D01*
X150434526Y-106603502D01*
X150481019Y-106657158D01*
X150491123Y-106727432D01*
X150461629Y-106792012D01*
X150455500Y-106798595D01*
X149732747Y-107521348D01*
X149724461Y-107528888D01*
X149717982Y-107533000D01*
X149712557Y-107538777D01*
X149671357Y-107582651D01*
X149668602Y-107585493D01*
X149648865Y-107605230D01*
X149646385Y-107608427D01*
X149638682Y-107617447D01*
X149608414Y-107649679D01*
X149604595Y-107656625D01*
X149604593Y-107656628D01*
X149598652Y-107667434D01*
X149587802Y-107683951D01*
X149581000Y-107692721D01*
X149523446Y-107734291D01*
X149481437Y-107741500D01*
X149470998Y-107741500D01*
X149468550Y-107741693D01*
X149468542Y-107741693D01*
X149440079Y-107743933D01*
X149440074Y-107743934D01*
X149433669Y-107744438D01*
X149367988Y-107763520D01*
X149281512Y-107788643D01*
X149281510Y-107788644D01*
X149273899Y-107790855D01*
X149267072Y-107794892D01*
X149267073Y-107794892D01*
X149137520Y-107871509D01*
X149137517Y-107871511D01*
X149130693Y-107875547D01*
X149013047Y-107993193D01*
X149009011Y-108000017D01*
X149009009Y-108000020D01*
X149003938Y-108008595D01*
X148928355Y-108136399D01*
X148881938Y-108296169D01*
X148881434Y-108302574D01*
X148881433Y-108302579D01*
X148879193Y-108331042D01*
X148879000Y-108333498D01*
X148879000Y-108766502D01*
X148879193Y-108768950D01*
X148879193Y-108768958D01*
X148880637Y-108787296D01*
X148881938Y-108803831D01*
X148928355Y-108963601D01*
X148932392Y-108970427D01*
X149009009Y-109099980D01*
X149009011Y-109099983D01*
X149013047Y-109106807D01*
X149130693Y-109224453D01*
X149137517Y-109228489D01*
X149137520Y-109228491D01*
X149245089Y-109292107D01*
X149273899Y-109309145D01*
X149281510Y-109311356D01*
X149281512Y-109311357D01*
X149333731Y-109326528D01*
X149433669Y-109355562D01*
X149440074Y-109356066D01*
X149440079Y-109356067D01*
X149468542Y-109358307D01*
X149468550Y-109358307D01*
X149470998Y-109358500D01*
X150779002Y-109358500D01*
X150781450Y-109358307D01*
X150781458Y-109358307D01*
X150809921Y-109356067D01*
X150809926Y-109356066D01*
X150816331Y-109355562D01*
X150916269Y-109326528D01*
X150968488Y-109311357D01*
X150968490Y-109311356D01*
X150976101Y-109309145D01*
X151004911Y-109292107D01*
X151112480Y-109228491D01*
X151112483Y-109228489D01*
X151119307Y-109224453D01*
X151236953Y-109106807D01*
X151240989Y-109099983D01*
X151240991Y-109099980D01*
X151317608Y-108970427D01*
X151321645Y-108963601D01*
X151368062Y-108803831D01*
X151369364Y-108787296D01*
X151370807Y-108768958D01*
X151370807Y-108768950D01*
X151371000Y-108766502D01*
X151371000Y-108534500D01*
X151391002Y-108466379D01*
X151444658Y-108419886D01*
X151497000Y-108408500D01*
X152654002Y-108408500D01*
X152656450Y-108408307D01*
X152656458Y-108408307D01*
X152684921Y-108406067D01*
X152684926Y-108406066D01*
X152691331Y-108405562D01*
X152791269Y-108376528D01*
X152843488Y-108361357D01*
X152843490Y-108361356D01*
X152851101Y-108359145D01*
X152884920Y-108339144D01*
X152913906Y-108326601D01*
X152919348Y-108325020D01*
X152938700Y-108321013D01*
X152950930Y-108319468D01*
X152950931Y-108319468D01*
X152958797Y-108318474D01*
X152966168Y-108315555D01*
X152966170Y-108315555D01*
X152999912Y-108302196D01*
X153011142Y-108298351D01*
X153045979Y-108288230D01*
X153053592Y-108286018D01*
X153053821Y-108286805D01*
X153117917Y-108278891D01*
X153181896Y-108309667D01*
X153219080Y-108370147D01*
X153223500Y-108403226D01*
X153223500Y-108620400D01*
X153223837Y-108623646D01*
X153223837Y-108623650D01*
X153224808Y-108633002D01*
X153234474Y-108726166D01*
X153236655Y-108732702D01*
X153236655Y-108732704D01*
X153272508Y-108840167D01*
X153290450Y-108893946D01*
X153383522Y-109044348D01*
X153508697Y-109169305D01*
X153514927Y-109173145D01*
X153514928Y-109173146D01*
X153589064Y-109218844D01*
X153659262Y-109262115D01*
X153710157Y-109278996D01*
X153820611Y-109315632D01*
X153820613Y-109315632D01*
X153827139Y-109317797D01*
X153833975Y-109318497D01*
X153833978Y-109318498D01*
X153877031Y-109322909D01*
X153931600Y-109328500D01*
X154932400Y-109328500D01*
X154935646Y-109328163D01*
X154935650Y-109328163D01*
X154965583Y-109325057D01*
X155038166Y-109317526D01*
X155053845Y-109312295D01*
X155124791Y-109309707D01*
X155182818Y-109342722D01*
X155198343Y-109358247D01*
X155205887Y-109366537D01*
X155210000Y-109373018D01*
X155215777Y-109378443D01*
X155259667Y-109419658D01*
X155262509Y-109422413D01*
X155282230Y-109442134D01*
X155285425Y-109444612D01*
X155294447Y-109452318D01*
X155326679Y-109482586D01*
X155333628Y-109486406D01*
X155344432Y-109492346D01*
X155360956Y-109503199D01*
X155376959Y-109515613D01*
X155417543Y-109533176D01*
X155428173Y-109538383D01*
X155466940Y-109559695D01*
X155474617Y-109561666D01*
X155474622Y-109561668D01*
X155486558Y-109564732D01*
X155505266Y-109571137D01*
X155523855Y-109579181D01*
X155531683Y-109580421D01*
X155531690Y-109580423D01*
X155567524Y-109586099D01*
X155579144Y-109588505D01*
X155614289Y-109597528D01*
X155621970Y-109599500D01*
X155642224Y-109599500D01*
X155661934Y-109601051D01*
X155681943Y-109604220D01*
X155689835Y-109603474D01*
X155725961Y-109600059D01*
X155737819Y-109599500D01*
X156343280Y-109599500D01*
X156411401Y-109619502D01*
X156457894Y-109673158D01*
X156467998Y-109743432D01*
X156438504Y-109808012D01*
X156411750Y-109831273D01*
X156100579Y-110032702D01*
X156094469Y-110036415D01*
X155952799Y-110117072D01*
X155519827Y-110363575D01*
X155513496Y-110366944D01*
X155229052Y-110508095D01*
X154921188Y-110660867D01*
X154914693Y-110663863D01*
X154306598Y-110923617D01*
X154299953Y-110926234D01*
X154105455Y-110996520D01*
X153678076Y-111150961D01*
X153671264Y-111153206D01*
X153354434Y-111247696D01*
X153037596Y-111342187D01*
X153030683Y-111344036D01*
X152787310Y-111401766D01*
X152427634Y-111487083D01*
X152404851Y-111490327D01*
X152397876Y-111490676D01*
X152397868Y-111490678D01*
X152388905Y-111491126D01*
X152366447Y-111498930D01*
X152347683Y-111503868D01*
X152333132Y-111506519D01*
X152333128Y-111506520D01*
X152324305Y-111508128D01*
X152316286Y-111512148D01*
X152316283Y-111512149D01*
X152296219Y-111522207D01*
X152281117Y-111528585D01*
X152259930Y-111535948D01*
X152259928Y-111535949D01*
X152251454Y-111538894D01*
X152244144Y-111544101D01*
X152232106Y-111552676D01*
X152215471Y-111562689D01*
X152202246Y-111569319D01*
X152202245Y-111569320D01*
X152194222Y-111573342D01*
X152187654Y-111579451D01*
X152187648Y-111579455D01*
X152171214Y-111594741D01*
X152158515Y-111605096D01*
X152132935Y-111623318D01*
X152118231Y-111641979D01*
X152105079Y-111656255D01*
X152087672Y-111672445D01*
X152083080Y-111680156D01*
X152071594Y-111699443D01*
X152062307Y-111712953D01*
X152042875Y-111737615D01*
X152039523Y-111745937D01*
X152039521Y-111745941D01*
X152033999Y-111759651D01*
X152025386Y-111777037D01*
X152013218Y-111797470D01*
X152010974Y-111806164D01*
X152005365Y-111827893D01*
X152000242Y-111843471D01*
X151988513Y-111872593D01*
X151987632Y-111881525D01*
X151986180Y-111896233D01*
X151982790Y-111915349D01*
X151979602Y-111927700D01*
X151976849Y-111938366D01*
X151977135Y-111947335D01*
X151977135Y-111947336D01*
X151977363Y-111954485D01*
X151975714Y-111979208D01*
X151939011Y-112199504D01*
X151935135Y-112215909D01*
X151861661Y-112454297D01*
X151855631Y-112470035D01*
X151755482Y-112686774D01*
X151750995Y-112696484D01*
X151742917Y-112711278D01*
X151608990Y-112921737D01*
X151599013Y-112935315D01*
X151438185Y-113126024D01*
X151426502Y-113138132D01*
X151270764Y-113279287D01*
X151241664Y-113305662D01*
X151228446Y-113316121D01*
X151022901Y-113457481D01*
X151008411Y-113466078D01*
X150785849Y-113578730D01*
X150770335Y-113585320D01*
X150534718Y-113667261D01*
X150518463Y-113671720D01*
X150274027Y-113721478D01*
X150257323Y-113723728D01*
X150008428Y-113740413D01*
X149991572Y-113740413D01*
X149742677Y-113723728D01*
X149725973Y-113721478D01*
X149481537Y-113671720D01*
X149465282Y-113667261D01*
X149229665Y-113585320D01*
X149214151Y-113578730D01*
X148991589Y-113466078D01*
X148977099Y-113457481D01*
X148771554Y-113316121D01*
X148758336Y-113305662D01*
X148729236Y-113279287D01*
X148573498Y-113138132D01*
X148561815Y-113126024D01*
X148400987Y-112935315D01*
X148391010Y-112921737D01*
X148257083Y-112711278D01*
X148249005Y-112696484D01*
X148244519Y-112686774D01*
X148144369Y-112470035D01*
X148138339Y-112454297D01*
X148064865Y-112215909D01*
X148060989Y-112199504D01*
X148051032Y-112139736D01*
X148025463Y-111986269D01*
X148024276Y-111964471D01*
X148023875Y-111959811D01*
X148024380Y-111950846D01*
X148022350Y-111942106D01*
X148022350Y-111942102D01*
X148019005Y-111927700D01*
X148016083Y-111908508D01*
X148014990Y-111893760D01*
X148014327Y-111884808D01*
X148003311Y-111855400D01*
X147998569Y-111839701D01*
X147993494Y-111817849D01*
X147991463Y-111809104D01*
X147979807Y-111788395D01*
X147971614Y-111770789D01*
X147966430Y-111756949D01*
X147966429Y-111756948D01*
X147963280Y-111748541D01*
X147944451Y-111723406D01*
X147935494Y-111709668D01*
X147933712Y-111706501D01*
X147920088Y-111682297D01*
X147910002Y-111672445D01*
X147903086Y-111665689D01*
X147890285Y-111651096D01*
X147883452Y-111641975D01*
X147876039Y-111632079D01*
X147850907Y-111613235D01*
X147838457Y-111602565D01*
X147822415Y-111586896D01*
X147822413Y-111586894D01*
X147815989Y-111580620D01*
X147795016Y-111569457D01*
X147778629Y-111559039D01*
X147766797Y-111550167D01*
X147766798Y-111550167D01*
X147759617Y-111544783D01*
X147751218Y-111541632D01*
X147751216Y-111541631D01*
X147730202Y-111533748D01*
X147715266Y-111527006D01*
X147687539Y-111512247D01*
X147664277Y-111507418D01*
X147645625Y-111502019D01*
X147637383Y-111498927D01*
X147623375Y-111493672D01*
X147614424Y-111493005D01*
X147614420Y-111493004D01*
X147599481Y-111491891D01*
X147579765Y-111488838D01*
X147548033Y-111481311D01*
X146969318Y-111344035D01*
X146962401Y-111342185D01*
X146328740Y-111153206D01*
X146328737Y-111153205D01*
X146321925Y-111150960D01*
X145700057Y-110926236D01*
X145693392Y-110923611D01*
X145085285Y-110663853D01*
X145078824Y-110660873D01*
X144762762Y-110504032D01*
X144486505Y-110366944D01*
X144480174Y-110363575D01*
X144047202Y-110117072D01*
X143905532Y-110036415D01*
X143899422Y-110032702D01*
X143344321Y-109673371D01*
X143338440Y-109669322D01*
X142989771Y-109414340D01*
X142804697Y-109278996D01*
X142799030Y-109274599D01*
X142429250Y-108970427D01*
X142288360Y-108854534D01*
X142282962Y-108849829D01*
X141797032Y-108401396D01*
X141791902Y-108396384D01*
X141332269Y-107921023D01*
X141327464Y-107915763D01*
X141117922Y-107672785D01*
X141088583Y-107608138D01*
X141098852Y-107537888D01*
X141145471Y-107484342D01*
X141213342Y-107464500D01*
X141252502Y-107464500D01*
X141254950Y-107464307D01*
X141254958Y-107464307D01*
X141283421Y-107462067D01*
X141283426Y-107462066D01*
X141289831Y-107461562D01*
X141389769Y-107432528D01*
X141441988Y-107417357D01*
X141441990Y-107417356D01*
X141449601Y-107415145D01*
X141478411Y-107398107D01*
X141585980Y-107334491D01*
X141585983Y-107334489D01*
X141592807Y-107330453D01*
X141710453Y-107212807D01*
X141714489Y-107205983D01*
X141714491Y-107205980D01*
X141791108Y-107076427D01*
X141795145Y-107069601D01*
X141841562Y-106909831D01*
X141842111Y-106902866D01*
X141844307Y-106874958D01*
X141844307Y-106874950D01*
X141844500Y-106872502D01*
X141844500Y-105737595D01*
X141864502Y-105669474D01*
X141881405Y-105648500D01*
X141912728Y-105617177D01*
X141975040Y-105583151D01*
X142045855Y-105588216D01*
G37*
%TD.AperFunction*%
%TA.AperFunction,Conductor*%
G36*
X145468427Y-104672002D02*
G01*
X145514920Y-104725658D01*
X145525024Y-104795932D01*
X145519899Y-104817667D01*
X145494203Y-104895139D01*
X145483500Y-104999600D01*
X145483500Y-106000400D01*
X145483837Y-106003646D01*
X145483837Y-106003650D01*
X145486338Y-106027750D01*
X145494474Y-106106166D01*
X145496655Y-106112702D01*
X145496655Y-106112704D01*
X145527813Y-106206095D01*
X145550450Y-106273946D01*
X145584889Y-106329598D01*
X145622331Y-106390104D01*
X145641169Y-106458556D01*
X145622447Y-106522523D01*
X145586077Y-106581526D01*
X145557885Y-106627262D01*
X145551965Y-106645110D01*
X145504806Y-106787292D01*
X145502203Y-106795139D01*
X145501503Y-106801975D01*
X145501502Y-106801978D01*
X145497091Y-106845031D01*
X145491500Y-106899600D01*
X145491500Y-107648906D01*
X145471498Y-107717027D01*
X145417842Y-107763520D01*
X145347568Y-107773624D01*
X145282988Y-107744130D01*
X145276405Y-107738001D01*
X144614832Y-107076427D01*
X143781405Y-106243000D01*
X143747379Y-106180688D01*
X143744500Y-106153905D01*
X143744500Y-105714498D01*
X143743145Y-105697283D01*
X143742067Y-105683579D01*
X143742066Y-105683574D01*
X143741562Y-105677169D01*
X143695145Y-105517399D01*
X143628207Y-105404213D01*
X143614491Y-105381020D01*
X143614489Y-105381017D01*
X143610453Y-105374193D01*
X143492807Y-105256547D01*
X143488998Y-105254294D01*
X143448345Y-105198004D01*
X143444494Y-105127112D01*
X143479582Y-105065391D01*
X143487276Y-105058724D01*
X143492807Y-105055453D01*
X143610453Y-104937807D01*
X143614489Y-104930983D01*
X143614491Y-104930980D01*
X143691108Y-104801427D01*
X143695145Y-104794601D01*
X143710181Y-104742847D01*
X143748394Y-104683011D01*
X143812890Y-104653334D01*
X143831178Y-104652000D01*
X145400306Y-104652000D01*
X145468427Y-104672002D01*
G37*
%TD.AperFunction*%
%TA.AperFunction,Conductor*%
G36*
X161594356Y-98512414D02*
G01*
X161643840Y-98563324D01*
X161657132Y-98604259D01*
X161659346Y-98619707D01*
X161664444Y-98655280D01*
X161665457Y-98662351D01*
X161666271Y-98669473D01*
X161684907Y-98887167D01*
X161722670Y-99328298D01*
X161723078Y-99335459D01*
X161731170Y-99619656D01*
X161740190Y-99936412D01*
X161741898Y-99996414D01*
X161741898Y-100003582D01*
X161738246Y-100131849D01*
X161723078Y-100664541D01*
X161722670Y-100671702D01*
X161689978Y-101053598D01*
X161675083Y-101227601D01*
X161666272Y-101330522D01*
X161665458Y-101337643D01*
X161588464Y-101874937D01*
X161571663Y-101992185D01*
X161570444Y-101999252D01*
X161442073Y-102634940D01*
X161439558Y-102647392D01*
X161437940Y-102654373D01*
X161350769Y-102987156D01*
X161270381Y-103294039D01*
X161268366Y-103300923D01*
X161064694Y-103929975D01*
X161062292Y-103936733D01*
X161047721Y-103974295D01*
X160824537Y-104549623D01*
X160823141Y-104553221D01*
X160820362Y-104559818D01*
X160549112Y-105156000D01*
X160546531Y-105161673D01*
X160543379Y-105168109D01*
X160496896Y-105256547D01*
X160235738Y-105753419D01*
X160232222Y-105759670D01*
X159891781Y-106326519D01*
X159887915Y-106332560D01*
X159688080Y-106626054D01*
X159613650Y-106735367D01*
X159558777Y-106780417D01*
X159488260Y-106788650D01*
X159424486Y-106757451D01*
X159387703Y-106696725D01*
X159383500Y-106664453D01*
X159383500Y-105440468D01*
X159384027Y-105429285D01*
X159385702Y-105421792D01*
X159383562Y-105353701D01*
X159383500Y-105349744D01*
X159383500Y-105321844D01*
X159382996Y-105317853D01*
X159382063Y-105306011D01*
X159380923Y-105269736D01*
X159380674Y-105261811D01*
X159375021Y-105242352D01*
X159371012Y-105222993D01*
X159370846Y-105221683D01*
X159368474Y-105202903D01*
X159365558Y-105195537D01*
X159365556Y-105195531D01*
X159352200Y-105161798D01*
X159348355Y-105150568D01*
X159338230Y-105115717D01*
X159338230Y-105115716D01*
X159336019Y-105108107D01*
X159325705Y-105090666D01*
X159317008Y-105072913D01*
X159312472Y-105061458D01*
X159309552Y-105054083D01*
X159283563Y-105018312D01*
X159277047Y-105008392D01*
X159273750Y-105002817D01*
X159254542Y-104970338D01*
X159240221Y-104956017D01*
X159227380Y-104940983D01*
X159225073Y-104937807D01*
X159215472Y-104924593D01*
X159181401Y-104896407D01*
X159172622Y-104888418D01*
X159065305Y-104781101D01*
X159031279Y-104718789D01*
X159028400Y-104692006D01*
X159028400Y-104172866D01*
X159021645Y-104110684D01*
X158970515Y-103974295D01*
X158883161Y-103857739D01*
X158859935Y-103840332D01*
X158817420Y-103783473D01*
X158809500Y-103739506D01*
X158809500Y-103120767D01*
X158810027Y-103109584D01*
X158811702Y-103102091D01*
X158809562Y-103034014D01*
X158809500Y-103030055D01*
X158809500Y-103002144D01*
X158808995Y-102998144D01*
X158808062Y-102986301D01*
X158806922Y-102950029D01*
X158806673Y-102942110D01*
X158801022Y-102922658D01*
X158797014Y-102903306D01*
X158795467Y-102891063D01*
X158794474Y-102883203D01*
X158788361Y-102867763D01*
X158778200Y-102842097D01*
X158774355Y-102830870D01*
X158769405Y-102813832D01*
X158762018Y-102788407D01*
X158757984Y-102781585D01*
X158757981Y-102781579D01*
X158751706Y-102770968D01*
X158743010Y-102753218D01*
X158738472Y-102741756D01*
X158738469Y-102741751D01*
X158735552Y-102734383D01*
X158709573Y-102698625D01*
X158703057Y-102688707D01*
X158684575Y-102657457D01*
X158680542Y-102650637D01*
X158666218Y-102636313D01*
X158653376Y-102621278D01*
X158641472Y-102604893D01*
X158637970Y-102601996D01*
X158606599Y-102539987D01*
X158604500Y-102517086D01*
X158604500Y-102369600D01*
X158593526Y-102263834D01*
X158575408Y-102209526D01*
X158539868Y-102103002D01*
X158537550Y-102096054D01*
X158444478Y-101945652D01*
X158363850Y-101865164D01*
X158336311Y-101837673D01*
X158302232Y-101775390D01*
X158307235Y-101704570D01*
X158349732Y-101647698D01*
X158416231Y-101622829D01*
X158425329Y-101622500D01*
X158712502Y-101622500D01*
X158714950Y-101622307D01*
X158714958Y-101622307D01*
X158743421Y-101620067D01*
X158743426Y-101620066D01*
X158749831Y-101619562D01*
X158887617Y-101579532D01*
X158901988Y-101575357D01*
X158901990Y-101575356D01*
X158909601Y-101573145D01*
X158980555Y-101531183D01*
X159045980Y-101492491D01*
X159045983Y-101492489D01*
X159052807Y-101488453D01*
X159170453Y-101370807D01*
X159174489Y-101363983D01*
X159174491Y-101363980D01*
X159251108Y-101234427D01*
X159255145Y-101227601D01*
X159263019Y-101200500D01*
X159280158Y-101141504D01*
X159301562Y-101067831D01*
X159302683Y-101053598D01*
X159304307Y-101032958D01*
X159304307Y-101032950D01*
X159304500Y-101030502D01*
X159304500Y-100591095D01*
X159324502Y-100522974D01*
X159341405Y-100501999D01*
X159650258Y-100193147D01*
X159658537Y-100185613D01*
X159665018Y-100181500D01*
X159711644Y-100131848D01*
X159714398Y-100129007D01*
X159734135Y-100109270D01*
X159736615Y-100106073D01*
X159744320Y-100097051D01*
X159769159Y-100070600D01*
X159774586Y-100064821D01*
X159778405Y-100057875D01*
X159778407Y-100057872D01*
X159784348Y-100047066D01*
X159795199Y-100030547D01*
X159802758Y-100020801D01*
X159807614Y-100014541D01*
X159810759Y-100007272D01*
X159810762Y-100007268D01*
X159825174Y-99973963D01*
X159830391Y-99963313D01*
X159851695Y-99924560D01*
X159856733Y-99904937D01*
X159863137Y-99886234D01*
X159868033Y-99874920D01*
X159868033Y-99874919D01*
X159871181Y-99867645D01*
X159872420Y-99859822D01*
X159872423Y-99859812D01*
X159878099Y-99823976D01*
X159880505Y-99812356D01*
X159889528Y-99777211D01*
X159889528Y-99777210D01*
X159891500Y-99769530D01*
X159891500Y-99749276D01*
X159893051Y-99729565D01*
X159894980Y-99717386D01*
X159896220Y-99709557D01*
X159892059Y-99665538D01*
X159891500Y-99653681D01*
X159891500Y-98803500D01*
X159911502Y-98735379D01*
X159965158Y-98688886D01*
X160017500Y-98677500D01*
X160957233Y-98677500D01*
X160968416Y-98678027D01*
X160975909Y-98679702D01*
X160983835Y-98679453D01*
X160983836Y-98679453D01*
X161043986Y-98677562D01*
X161047945Y-98677500D01*
X161075856Y-98677500D01*
X161079791Y-98677003D01*
X161079856Y-98676995D01*
X161091693Y-98676062D01*
X161123951Y-98675048D01*
X161127970Y-98674922D01*
X161135889Y-98674673D01*
X161155343Y-98669021D01*
X161174700Y-98665013D01*
X161186930Y-98663468D01*
X161186931Y-98663468D01*
X161194797Y-98662474D01*
X161202168Y-98659555D01*
X161202170Y-98659555D01*
X161235912Y-98646196D01*
X161247142Y-98642351D01*
X161281983Y-98632229D01*
X161281984Y-98632229D01*
X161289593Y-98630018D01*
X161296412Y-98625985D01*
X161296417Y-98625983D01*
X161307028Y-98619707D01*
X161324776Y-98611012D01*
X161343617Y-98603552D01*
X161379387Y-98577564D01*
X161389307Y-98571048D01*
X161420535Y-98552580D01*
X161420538Y-98552578D01*
X161427362Y-98548542D01*
X161441683Y-98534221D01*
X161456702Y-98521391D01*
X161458340Y-98520201D01*
X161525203Y-98496339D01*
X161594356Y-98512414D01*
G37*
%TD.AperFunction*%
%TA.AperFunction,Conductor*%
G36*
X138942012Y-100750266D02*
G01*
X138966643Y-100779186D01*
X139051522Y-100916348D01*
X139176697Y-101041305D01*
X139182927Y-101045145D01*
X139182928Y-101045146D01*
X139320090Y-101129694D01*
X139327262Y-101134115D01*
X139369447Y-101148107D01*
X139488611Y-101187632D01*
X139488613Y-101187632D01*
X139495139Y-101189797D01*
X139501975Y-101190497D01*
X139501978Y-101190498D01*
X139545031Y-101194909D01*
X139599600Y-101200500D01*
X140600400Y-101200500D01*
X140603646Y-101200163D01*
X140603650Y-101200163D01*
X140699308Y-101190238D01*
X140699312Y-101190237D01*
X140706166Y-101189526D01*
X140712702Y-101187345D01*
X140712704Y-101187345D01*
X140850105Y-101141504D01*
X140873946Y-101133550D01*
X141024348Y-101040478D01*
X141126265Y-100938383D01*
X141188547Y-100904304D01*
X141259367Y-100909307D01*
X141316240Y-100951804D01*
X141341109Y-101018303D01*
X141338685Y-101053598D01*
X141321571Y-101134115D01*
X141320000Y-101141504D01*
X141320000Y-101338496D01*
X141321372Y-101344949D01*
X141321372Y-101344953D01*
X141329542Y-101383387D01*
X141360957Y-101531183D01*
X141363641Y-101537212D01*
X141363642Y-101537214D01*
X141386183Y-101587842D01*
X141441081Y-101711143D01*
X141556869Y-101870513D01*
X141561780Y-101874935D01*
X141561782Y-101874937D01*
X141685381Y-101986225D01*
X141703263Y-102002326D01*
X141708981Y-102005627D01*
X141714325Y-102009510D01*
X141712557Y-102011944D01*
X141752524Y-102053905D01*
X141766500Y-102111582D01*
X141766500Y-102141405D01*
X141746498Y-102209526D01*
X141729595Y-102230500D01*
X141593747Y-102366348D01*
X141585461Y-102373888D01*
X141578982Y-102378000D01*
X141573557Y-102383777D01*
X141532357Y-102427651D01*
X141529602Y-102430493D01*
X141509865Y-102450230D01*
X141507385Y-102453427D01*
X141499682Y-102462447D01*
X141469414Y-102494679D01*
X141465595Y-102501625D01*
X141465593Y-102501628D01*
X141459652Y-102512434D01*
X141448801Y-102528953D01*
X141436386Y-102544959D01*
X141433241Y-102552228D01*
X141433238Y-102552232D01*
X141418826Y-102585537D01*
X141413609Y-102596187D01*
X141392305Y-102634940D01*
X141390334Y-102642615D01*
X141390334Y-102642616D01*
X141387267Y-102654562D01*
X141380863Y-102673266D01*
X141372819Y-102691855D01*
X141371580Y-102699678D01*
X141371577Y-102699688D01*
X141365901Y-102735524D01*
X141363498Y-102747132D01*
X141362038Y-102752821D01*
X141325730Y-102813832D01*
X141262202Y-102845527D01*
X141239993Y-102847500D01*
X140819498Y-102847500D01*
X140817050Y-102847693D01*
X140817042Y-102847693D01*
X140788579Y-102849933D01*
X140788574Y-102849934D01*
X140782169Y-102850438D01*
X140682231Y-102879472D01*
X140630012Y-102894643D01*
X140630010Y-102894644D01*
X140622399Y-102896855D01*
X140615572Y-102900892D01*
X140615573Y-102900892D01*
X140486020Y-102977509D01*
X140486017Y-102977511D01*
X140479193Y-102981547D01*
X140361547Y-103099193D01*
X140357511Y-103106017D01*
X140357509Y-103106020D01*
X140293893Y-103213589D01*
X140276855Y-103242399D01*
X140274644Y-103250010D01*
X140274643Y-103250012D01*
X140261819Y-103294153D01*
X140223606Y-103353989D01*
X140159110Y-103383666D01*
X140140822Y-103385000D01*
X139893095Y-103385000D01*
X139824974Y-103364998D01*
X139804000Y-103348095D01*
X139100405Y-102644500D01*
X139066379Y-102582188D01*
X139063500Y-102555405D01*
X139063500Y-102108763D01*
X139064027Y-102097579D01*
X139065701Y-102090091D01*
X139063562Y-102022032D01*
X139063500Y-102018075D01*
X139063500Y-101990144D01*
X139062994Y-101986138D01*
X139062061Y-101974292D01*
X139061490Y-101956097D01*
X139060673Y-101930110D01*
X139055022Y-101910658D01*
X139051014Y-101891306D01*
X139049468Y-101879068D01*
X139049467Y-101879066D01*
X139048474Y-101871203D01*
X139032194Y-101830086D01*
X139028359Y-101818885D01*
X139016018Y-101776406D01*
X139011985Y-101769587D01*
X139011983Y-101769582D01*
X139005707Y-101758971D01*
X138997010Y-101741221D01*
X138989552Y-101722383D01*
X138981387Y-101711144D01*
X138963572Y-101686625D01*
X138957053Y-101676701D01*
X138938578Y-101645460D01*
X138938574Y-101645455D01*
X138934542Y-101638637D01*
X138920218Y-101624313D01*
X138907376Y-101609278D01*
X138895472Y-101592893D01*
X138861406Y-101564711D01*
X138852627Y-101556722D01*
X138770405Y-101474500D01*
X138736379Y-101412188D01*
X138733500Y-101385405D01*
X138733500Y-100845490D01*
X138753502Y-100777369D01*
X138807158Y-100730876D01*
X138877432Y-100720772D01*
X138942012Y-100750266D01*
G37*
%TD.AperFunction*%
%TA.AperFunction,Conductor*%
G36*
X157601122Y-99930578D02*
G01*
X157659497Y-99970986D01*
X157686759Y-100036540D01*
X157687500Y-100050186D01*
X157687500Y-101030502D01*
X157687693Y-101032950D01*
X157687693Y-101032958D01*
X157689318Y-101053598D01*
X157690438Y-101067831D01*
X157711842Y-101141504D01*
X157728982Y-101200500D01*
X157736855Y-101227601D01*
X157740892Y-101234427D01*
X157817509Y-101363980D01*
X157817511Y-101363983D01*
X157821547Y-101370807D01*
X157897145Y-101446405D01*
X157931171Y-101508717D01*
X157926106Y-101579532D01*
X157883559Y-101636368D01*
X157817039Y-101661179D01*
X157808050Y-101661500D01*
X157355500Y-101661500D01*
X157287379Y-101641498D01*
X157240886Y-101587842D01*
X157229500Y-101535500D01*
X157229500Y-101527769D01*
X157231051Y-101508058D01*
X157232979Y-101495885D01*
X157234219Y-101488057D01*
X157232802Y-101473063D01*
X157246306Y-101403362D01*
X157260907Y-101383387D01*
X157259989Y-101382675D01*
X157264845Y-101376415D01*
X157270453Y-101370807D01*
X157274489Y-101363983D01*
X157274491Y-101363980D01*
X157351108Y-101234427D01*
X157355145Y-101227601D01*
X157363019Y-101200500D01*
X157380158Y-101141504D01*
X157401562Y-101067831D01*
X157402683Y-101053598D01*
X157404307Y-101032958D01*
X157404307Y-101032950D01*
X157404500Y-101030502D01*
X157404500Y-100057807D01*
X157424502Y-99989686D01*
X157478158Y-99943193D01*
X157502007Y-99936412D01*
X157501757Y-99935438D01*
X157509431Y-99933468D01*
X157517297Y-99932474D01*
X157524666Y-99929556D01*
X157530167Y-99928144D01*
X157601122Y-99930578D01*
G37*
%TD.AperFunction*%
%TA.AperFunction,Conductor*%
G36*
X141237930Y-98612783D02*
G01*
X141294803Y-98655280D01*
X141319671Y-98721779D01*
X141320000Y-98730877D01*
X141320000Y-98798496D01*
X141321372Y-98804949D01*
X141321372Y-98804953D01*
X141333585Y-98862407D01*
X141360957Y-98991183D01*
X141363641Y-98997212D01*
X141363642Y-98997214D01*
X141388803Y-99053725D01*
X141441081Y-99171143D01*
X141556869Y-99330513D01*
X141561780Y-99334935D01*
X141561782Y-99334937D01*
X141655435Y-99419262D01*
X141703263Y-99462326D01*
X141873862Y-99560822D01*
X141880148Y-99562864D01*
X141880147Y-99562864D01*
X142054934Y-99619656D01*
X142054936Y-99619656D01*
X142061213Y-99621696D01*
X142067776Y-99622386D01*
X142067777Y-99622386D01*
X142094283Y-99625172D01*
X142208011Y-99637125D01*
X142591989Y-99637125D01*
X142705717Y-99625172D01*
X142732223Y-99622386D01*
X142732224Y-99622386D01*
X142738787Y-99621696D01*
X142745064Y-99619656D01*
X142745066Y-99619656D01*
X142828052Y-99592692D01*
X142926138Y-99560822D01*
X142950865Y-99546546D01*
X142962088Y-99540066D01*
X143031084Y-99523327D01*
X143098176Y-99546546D01*
X143114185Y-99560089D01*
X143347595Y-99793499D01*
X143381621Y-99855811D01*
X143384500Y-99882594D01*
X143384500Y-100453777D01*
X143364498Y-100521898D01*
X143310842Y-100568391D01*
X143240568Y-100578495D01*
X143174190Y-100547413D01*
X143101645Y-100482093D01*
X143101644Y-100482092D01*
X143096737Y-100477674D01*
X142926138Y-100379178D01*
X142847723Y-100353699D01*
X142745066Y-100320344D01*
X142745064Y-100320344D01*
X142738787Y-100318304D01*
X142732224Y-100317614D01*
X142732223Y-100317614D01*
X142705717Y-100314828D01*
X142591989Y-100302875D01*
X142208011Y-100302875D01*
X142094283Y-100314828D01*
X142067777Y-100317614D01*
X142067776Y-100317614D01*
X142061213Y-100318304D01*
X142054936Y-100320344D01*
X142054934Y-100320344D01*
X141952277Y-100353699D01*
X141873862Y-100379178D01*
X141703263Y-100477674D01*
X141698356Y-100482092D01*
X141698355Y-100482093D01*
X141570892Y-100596861D01*
X141556869Y-100609487D01*
X141552985Y-100614833D01*
X141552984Y-100614834D01*
X141528716Y-100648235D01*
X141472493Y-100691588D01*
X141401757Y-100697663D01*
X141338966Y-100664531D01*
X141304055Y-100602710D01*
X141301437Y-100561333D01*
X141308500Y-100492400D01*
X141308500Y-99691600D01*
X141305796Y-99665539D01*
X141298238Y-99592692D01*
X141298237Y-99592688D01*
X141297526Y-99585834D01*
X141289182Y-99560822D01*
X141243868Y-99425002D01*
X141241550Y-99418054D01*
X141148478Y-99267652D01*
X141023303Y-99142695D01*
X140872738Y-99049885D01*
X140865792Y-99047581D01*
X140864981Y-99047203D01*
X140811695Y-99000286D01*
X140792234Y-98932009D01*
X140812775Y-98864049D01*
X140864783Y-98818905D01*
X140866994Y-98817869D01*
X140873946Y-98815550D01*
X140880847Y-98811280D01*
X141018120Y-98726332D01*
X141024348Y-98722478D01*
X141047418Y-98699368D01*
X141104827Y-98641859D01*
X141167110Y-98607780D01*
X141237930Y-98612783D01*
G37*
%TD.AperFunction*%
%TA.AperFunction,Conductor*%
G36*
X150257323Y-86276273D02*
G01*
X150274024Y-86278522D01*
X150396245Y-86303402D01*
X150518463Y-86328281D01*
X150534717Y-86332740D01*
X150770334Y-86414681D01*
X150785848Y-86421271D01*
X151008410Y-86533923D01*
X151022901Y-86542520D01*
X151172973Y-86645729D01*
X151228446Y-86683880D01*
X151241664Y-86694339D01*
X151426493Y-86861861D01*
X151438191Y-86873984D01*
X151550547Y-87007215D01*
X151599009Y-87064681D01*
X151608989Y-87078264D01*
X151742916Y-87288722D01*
X151750992Y-87303513D01*
X151855629Y-87529963D01*
X151861660Y-87545703D01*
X151935134Y-87784092D01*
X151939009Y-87800492D01*
X151974536Y-88013730D01*
X151975722Y-88035527D01*
X151976124Y-88040192D01*
X151975619Y-88049154D01*
X151977650Y-88057899D01*
X151977650Y-88057901D01*
X151980997Y-88072315D01*
X151983919Y-88091505D01*
X151984110Y-88094078D01*
X151985674Y-88115192D01*
X151988823Y-88123597D01*
X151988823Y-88123599D01*
X151996686Y-88144589D01*
X152001428Y-88160289D01*
X152004173Y-88172107D01*
X152008536Y-88190896D01*
X152015085Y-88202530D01*
X152020197Y-88211613D01*
X152028387Y-88229214D01*
X152036721Y-88251459D01*
X152055542Y-88276584D01*
X152064492Y-88290309D01*
X152079911Y-88317703D01*
X152096925Y-88334321D01*
X152109715Y-88348902D01*
X152123962Y-88367921D01*
X152131145Y-88373307D01*
X152149085Y-88386759D01*
X152161536Y-88397429D01*
X152177588Y-88413108D01*
X152177590Y-88413110D01*
X152184010Y-88419380D01*
X152204997Y-88430552D01*
X152221370Y-88440961D01*
X152240384Y-88455217D01*
X152269789Y-88466248D01*
X152284733Y-88472995D01*
X152304531Y-88483533D01*
X152304534Y-88483534D01*
X152312460Y-88487753D01*
X152321251Y-88489578D01*
X152321255Y-88489579D01*
X152335731Y-88492584D01*
X152354384Y-88497983D01*
X152376626Y-88506328D01*
X152385577Y-88506995D01*
X152385580Y-88506996D01*
X152400528Y-88508110D01*
X152420242Y-88511163D01*
X153030683Y-88655964D01*
X153037596Y-88657813D01*
X153354434Y-88752304D01*
X153671264Y-88846794D01*
X153678076Y-88849039D01*
X153873422Y-88919631D01*
X154299953Y-89073766D01*
X154306598Y-89076383D01*
X154914693Y-89336137D01*
X154921184Y-89339131D01*
X155229052Y-89491905D01*
X155513496Y-89633056D01*
X155519827Y-89636425D01*
X155764640Y-89775804D01*
X156094469Y-89963585D01*
X156100579Y-89967298D01*
X156655680Y-90326629D01*
X156661561Y-90330678D01*
X156984031Y-90566500D01*
X157195304Y-90721004D01*
X157200971Y-90725401D01*
X157207615Y-90730866D01*
X157711641Y-91145466D01*
X157717039Y-91150171D01*
X158109020Y-91511904D01*
X158145516Y-91572801D01*
X158143295Y-91643763D01*
X158103062Y-91702259D01*
X158037590Y-91729717D01*
X158023569Y-91730500D01*
X157621600Y-91730500D01*
X157618354Y-91730837D01*
X157618350Y-91730837D01*
X157522692Y-91740762D01*
X157522688Y-91740763D01*
X157515834Y-91741474D01*
X157509298Y-91743655D01*
X157509296Y-91743655D01*
X157377194Y-91787728D01*
X157348054Y-91797450D01*
X157197652Y-91890522D01*
X157072695Y-92015697D01*
X157070094Y-92019916D01*
X157012970Y-92060417D01*
X156942047Y-92063649D01*
X156880635Y-92028024D01*
X156874078Y-92020470D01*
X156870478Y-92014652D01*
X156745303Y-91889695D01*
X156711170Y-91868655D01*
X156600968Y-91800725D01*
X156600966Y-91800724D01*
X156594738Y-91796885D01*
X156501013Y-91765798D01*
X156433389Y-91743368D01*
X156433387Y-91743368D01*
X156426861Y-91741203D01*
X156420025Y-91740503D01*
X156420022Y-91740502D01*
X156376969Y-91736091D01*
X156322400Y-91730500D01*
X155546600Y-91730500D01*
X155543354Y-91730837D01*
X155543350Y-91730837D01*
X155447692Y-91740762D01*
X155447688Y-91740763D01*
X155440834Y-91741474D01*
X155434298Y-91743655D01*
X155434296Y-91743655D01*
X155302194Y-91787728D01*
X155273054Y-91797450D01*
X155122652Y-91890522D01*
X155010595Y-92002775D01*
X154948314Y-92036853D01*
X154877494Y-92031850D01*
X154847709Y-92015101D01*
X154847303Y-92014695D01*
X154827964Y-92002774D01*
X154702968Y-91925725D01*
X154702966Y-91925724D01*
X154696738Y-91921885D01*
X154599688Y-91889695D01*
X154535389Y-91868368D01*
X154535387Y-91868368D01*
X154528861Y-91866203D01*
X154522025Y-91865503D01*
X154522022Y-91865502D01*
X154478969Y-91861091D01*
X154424400Y-91855500D01*
X153423600Y-91855500D01*
X153420354Y-91855837D01*
X153420350Y-91855837D01*
X153324692Y-91865762D01*
X153324688Y-91865763D01*
X153317834Y-91866474D01*
X153311298Y-91868655D01*
X153311296Y-91868655D01*
X153232733Y-91894866D01*
X153150054Y-91922450D01*
X152999652Y-92015522D01*
X152874695Y-92140697D01*
X152870855Y-92146927D01*
X152870854Y-92146928D01*
X152827771Y-92216822D01*
X152781885Y-92291262D01*
X152726203Y-92459139D01*
X152715500Y-92563600D01*
X152715500Y-93364400D01*
X152726474Y-93470166D01*
X152728655Y-93476702D01*
X152728655Y-93476704D01*
X152732891Y-93489400D01*
X152782450Y-93637946D01*
X152875522Y-93788348D01*
X152880704Y-93793521D01*
X152962109Y-93874784D01*
X152996188Y-93937066D01*
X152991185Y-94007886D01*
X152962264Y-94052975D01*
X152941252Y-94074024D01*
X152874695Y-94140697D01*
X152806539Y-94251267D01*
X152805065Y-94253658D01*
X152752293Y-94301151D01*
X152682221Y-94312575D01*
X152643490Y-94299350D01*
X152643042Y-94300386D01*
X152602463Y-94282826D01*
X152591813Y-94277609D01*
X152553060Y-94256305D01*
X152533437Y-94251267D01*
X152514734Y-94244863D01*
X152503420Y-94239967D01*
X152503419Y-94239967D01*
X152496145Y-94236819D01*
X152488322Y-94235580D01*
X152488312Y-94235577D01*
X152452476Y-94229901D01*
X152440856Y-94227495D01*
X152405711Y-94218472D01*
X152405710Y-94218472D01*
X152398030Y-94216500D01*
X152377776Y-94216500D01*
X152358065Y-94214949D01*
X152345886Y-94213020D01*
X152338057Y-94211780D01*
X152295224Y-94215829D01*
X152294039Y-94215941D01*
X152282181Y-94216500D01*
X151440334Y-94216500D01*
X151376195Y-94198954D01*
X151373307Y-94197246D01*
X151367041Y-94192386D01*
X151348816Y-94184499D01*
X151294243Y-94139088D01*
X151272884Y-94071381D01*
X151273549Y-94055693D01*
X151280814Y-93986565D01*
X151281504Y-93980000D01*
X151273734Y-93906072D01*
X151262232Y-93796635D01*
X151262232Y-93796633D01*
X151261542Y-93790072D01*
X151202527Y-93608444D01*
X151197877Y-93600389D01*
X151122692Y-93470166D01*
X151107040Y-93443056D01*
X150979253Y-93301134D01*
X150824752Y-93188882D01*
X150818724Y-93186198D01*
X150818722Y-93186197D01*
X150656319Y-93113891D01*
X150656318Y-93113891D01*
X150650288Y-93111206D01*
X150515731Y-93082605D01*
X150471782Y-93073263D01*
X150409308Y-93039534D01*
X150374987Y-92977385D01*
X150379715Y-92906546D01*
X150408806Y-92860998D01*
X150437312Y-92832443D01*
X150521305Y-92748303D01*
X150614115Y-92597738D01*
X150669797Y-92429861D01*
X150680500Y-92325400D01*
X150680500Y-91274600D01*
X150678582Y-91256113D01*
X150670238Y-91175692D01*
X150670237Y-91175688D01*
X150669526Y-91168834D01*
X150666524Y-91159834D01*
X150615868Y-91008002D01*
X150613550Y-91001054D01*
X150520478Y-90850652D01*
X150395303Y-90725695D01*
X150244738Y-90632885D01*
X150084254Y-90579655D01*
X150083389Y-90579368D01*
X150083387Y-90579368D01*
X150076861Y-90577203D01*
X150070025Y-90576503D01*
X150070022Y-90576502D01*
X150026969Y-90572091D01*
X149972400Y-90566500D01*
X149196600Y-90566500D01*
X149193354Y-90566837D01*
X149193350Y-90566837D01*
X149097692Y-90576762D01*
X149097688Y-90576763D01*
X149090834Y-90577474D01*
X149084298Y-90579655D01*
X149084296Y-90579655D01*
X149004668Y-90606221D01*
X148933718Y-90608805D01*
X148875697Y-90575792D01*
X147569652Y-89269747D01*
X147562112Y-89261461D01*
X147558000Y-89254982D01*
X147508348Y-89208356D01*
X147505507Y-89205602D01*
X147485770Y-89185865D01*
X147482573Y-89183385D01*
X147473551Y-89175680D01*
X147447100Y-89150841D01*
X147441321Y-89145414D01*
X147434375Y-89141595D01*
X147434372Y-89141593D01*
X147423566Y-89135652D01*
X147407047Y-89124801D01*
X147406583Y-89124441D01*
X147391041Y-89112386D01*
X147383772Y-89109241D01*
X147383768Y-89109238D01*
X147350463Y-89094826D01*
X147339813Y-89089609D01*
X147301060Y-89068305D01*
X147281437Y-89063267D01*
X147262734Y-89056863D01*
X147251420Y-89051967D01*
X147251419Y-89051967D01*
X147244145Y-89048819D01*
X147236322Y-89047580D01*
X147236312Y-89047577D01*
X147200476Y-89041901D01*
X147188856Y-89039495D01*
X147153711Y-89030472D01*
X147153710Y-89030472D01*
X147146030Y-89028500D01*
X147125776Y-89028500D01*
X147106065Y-89026949D01*
X147093886Y-89025020D01*
X147086057Y-89023780D01*
X147078165Y-89024526D01*
X147042039Y-89027941D01*
X147030181Y-89028500D01*
X146582830Y-89028500D01*
X146514709Y-89008498D01*
X146468216Y-88954842D01*
X146458112Y-88884568D01*
X146487606Y-88819988D01*
X146546820Y-88781755D01*
X146934872Y-88666025D01*
X146962405Y-88657814D01*
X146969318Y-88655965D01*
X147572370Y-88512916D01*
X147595159Y-88509671D01*
X147596669Y-88509595D01*
X147611096Y-88508874D01*
X147633554Y-88501069D01*
X147652320Y-88496131D01*
X147654249Y-88495780D01*
X147675696Y-88491872D01*
X147703779Y-88477793D01*
X147718879Y-88471417D01*
X147740061Y-88464056D01*
X147740063Y-88464055D01*
X147748546Y-88461107D01*
X147756815Y-88455217D01*
X147767902Y-88447320D01*
X147784534Y-88437309D01*
X147797754Y-88430681D01*
X147805779Y-88426658D01*
X147828785Y-88405260D01*
X147841487Y-88394903D01*
X147859753Y-88381892D01*
X147859756Y-88381889D01*
X147867066Y-88376682D01*
X147881770Y-88358021D01*
X147894925Y-88343742D01*
X147912329Y-88327555D01*
X147928407Y-88300557D01*
X147937694Y-88287047D01*
X147951573Y-88269432D01*
X147957126Y-88262385D01*
X147960478Y-88254063D01*
X147960480Y-88254059D01*
X147966002Y-88240349D01*
X147974615Y-88222963D01*
X147986783Y-88202530D01*
X147994636Y-88172106D01*
X147999760Y-88156527D01*
X148008135Y-88135733D01*
X148008135Y-88135731D01*
X148011488Y-88127407D01*
X148013821Y-88103767D01*
X148017211Y-88084651D01*
X148020909Y-88070325D01*
X148020909Y-88070322D01*
X148023152Y-88061634D01*
X148022638Y-88045515D01*
X148024287Y-88020792D01*
X148051032Y-87860265D01*
X148060991Y-87800493D01*
X148064866Y-87784092D01*
X148138340Y-87545703D01*
X148144371Y-87529963D01*
X148249008Y-87303513D01*
X148257084Y-87288722D01*
X148391011Y-87078264D01*
X148400991Y-87064681D01*
X148449453Y-87007215D01*
X148561809Y-86873984D01*
X148573507Y-86861861D01*
X148758336Y-86694339D01*
X148771554Y-86683880D01*
X148827027Y-86645729D01*
X148977099Y-86542520D01*
X148991590Y-86533923D01*
X149214152Y-86421271D01*
X149229666Y-86414681D01*
X149465283Y-86332740D01*
X149481537Y-86328281D01*
X149603754Y-86303402D01*
X149725976Y-86278522D01*
X149742677Y-86276273D01*
X149991572Y-86259588D01*
X150008428Y-86259588D01*
X150257323Y-86276273D01*
G37*
%TD.AperFunction*%
%TA.AperFunction,Conductor*%
G36*
X146819527Y-90315502D02*
G01*
X146840501Y-90332405D01*
X147919595Y-91411499D01*
X147953621Y-91473811D01*
X147956500Y-91500594D01*
X147956500Y-91673211D01*
X147936498Y-91741332D01*
X147882842Y-91787825D01*
X147812568Y-91797929D01*
X147778159Y-91787825D01*
X147740935Y-91770826D01*
X147740933Y-91770826D01*
X147732734Y-91767081D01*
X147588000Y-91746271D01*
X146708740Y-91746271D01*
X146640619Y-91726269D01*
X146594126Y-91672613D01*
X146587848Y-91655781D01*
X146580304Y-91630089D01*
X146543487Y-91572801D01*
X146506122Y-91514659D01*
X146506120Y-91514656D01*
X146501250Y-91507079D01*
X146433536Y-91448404D01*
X146397555Y-91417226D01*
X146397552Y-91417224D01*
X146390743Y-91411324D01*
X146257734Y-91350581D01*
X146113000Y-91329771D01*
X144058323Y-91329771D01*
X143990202Y-91309769D01*
X143943709Y-91256113D01*
X143933605Y-91185839D01*
X143963099Y-91121259D01*
X143969212Y-91114692D01*
X144751502Y-90332403D01*
X144813812Y-90298379D01*
X144840595Y-90295500D01*
X146751406Y-90295500D01*
X146819527Y-90315502D01*
G37*
%TD.AperFunction*%
M02*
