%TF.GenerationSoftware,KiCad,Pcbnew,(6.0.1)*%
%TF.CreationDate,2024-02-25T12:41:37+01:00*%
%TF.ProjectId,Lin1,4c696e31-2e6b-4696-9361-645f70636258,rev?*%
%TF.SameCoordinates,Original*%
%TF.FileFunction,Copper,L1,Top*%
%TF.FilePolarity,Positive*%
%FSLAX46Y46*%
G04 Gerber Fmt 4.6, Leading zero omitted, Abs format (unit mm)*
G04 Created by KiCad (PCBNEW (6.0.1)) date 2024-02-25 12:41:37*
%MOMM*%
%LPD*%
G01*
G04 APERTURE LIST*
G04 Aperture macros list*
%AMRoundRect*
0 Rectangle with rounded corners*
0 $1 Rounding radius*
0 $2 $3 $4 $5 $6 $7 $8 $9 X,Y pos of 4 corners*
0 Add a 4 corners polygon primitive as box body*
4,1,4,$2,$3,$4,$5,$6,$7,$8,$9,$2,$3,0*
0 Add four circle primitives for the rounded corners*
1,1,$1+$1,$2,$3*
1,1,$1+$1,$4,$5*
1,1,$1+$1,$6,$7*
1,1,$1+$1,$8,$9*
0 Add four rect primitives between the rounded corners*
20,1,$1+$1,$2,$3,$4,$5,0*
20,1,$1+$1,$4,$5,$6,$7,0*
20,1,$1+$1,$6,$7,$8,$9,0*
20,1,$1+$1,$8,$9,$2,$3,0*%
%AMFreePoly0*
4,1,215,0.767300,12.195887,1.446896,12.134039,2.121981,12.034351,2.790448,11.897134,3.450213,11.722817,4.099218,11.511942,4.735440,11.265168,5.356895,10.983263,5.961645,10.667108,6.547803,10.317687,7.113543,9.936091,7.657099,9.523510,8.176776,9.081230,8.670954,8.610630,9.138093,8.113178,9.576734,7.590426,9.985511,7.044003,10.363148,6.475613,10.708468,5.887030,11.020393,5.280088,
11.297953,4.656680,11.540279,4.018750,11.746618,3.368288,11.916325,2.707323,12.048872,2.037914,12.143844,1.362150,12.200946,0.682139,12.220000,0.000000,12.215236,-0.341202,12.177143,-1.022543,12.101076,-1.700695,11.987272,-2.373544,11.836086,-3.038990,11.647990,-3.694960,11.423570,-4.339407,11.163525,-4.970322,10.868668,-5.585737,10.539917,-6.183733,10.178298,-6.762445,9.784937,-7.320068,
9.361063,-7.854865,8.907997,-8.365166,8.427151,-8.849380,7.920025,-9.305998,7.388201,-9.733596,6.833337,-10.130839,6.257164,-10.496490,5.661478,-10.829408,5.048136,-11.128554,4.419052,-11.392997,3.776188,-11.621911,3.121547,-11.814582,2.457172,-11.970410,1.785135,-12.088908,1.107530,-12.169707,0.426472,-12.212556,-0.255916,-12.217320,-0.937507,-12.183985,-1.616173,-12.112654,-2.289800,-12.003550,
-2.956286,-11.857014,-3.613552,-11.673502,-4.259550,-11.453586,-4.892265,-11.197953,-5.509724,-10.907399,-6.110000,-10.582830,-6.691223,-10.225260,-7.251579,-9.835802,-7.789321,-9.415672,-8.302773,-8.966179,-8.790332,-8.488725,-9.250480,-7.984800,-9.681779,-7.455974,-10.082887,-6.903897,-10.452551,-6.330290,-10.789620,-5.736942,-11.093041,-5.125704,-11.361869,-4.498482,-11.595265,-3.857231,-11.792502,-3.203952,
-11.952964,-2.540681,-12.076151,-1.869487,-12.161679,-1.192463,-12.209281,-0.511720,-12.213485,-0.210651,-9.282581,-0.210651,-9.249639,-0.809239,-9.178137,-1.404452,-9.068374,-1.993811,-8.920807,-2.574859,-8.736051,-3.145172,-8.514876,-3.702374,-8.258205,-4.244141,-7.967108,-4.768216,-7.642797,-5.272413,-7.286626,-5.754630,-6.900078,-6.212858,-6.484766,-6.645186,-6.042420,-7.049812,-5.574884,-7.425049,
-5.084109,-7.769332,-4.572138,-8.081227,-4.041108,-8.359434,-3.493231,-8.602791,-2.930792,-8.810286,-2.356135,-8.981053,-1.771656,-9.114380,-1.179791,-9.209711,-0.583008,-9.266649,0.016205,-9.284957,0.615351,-9.264558,1.211932,-9.205537,1.803460,-9.108140,2.387471,-8.972774,2.961528,-8.800002,3.523239,-8.590545,4.070263,-8.345277,4.600319,-8.065218,5.111198,-7.751538,5.600769,-7.405544,
6.066991,-7.028677,6.507922,-6.622510,6.921723,-6.188735,7.306669,-5.729160,7.661155,-5.245702,7.983703,-4.740376,8.272970,-4.215289,8.527748,-3.672629,8.746976,-3.114658,8.929740,-2.543703,9.075278,-1.962145,9.182984,-1.372406,9.252407,-0.776946,9.283260,-0.178248,9.284971,0.000000,9.265618,0.599181,9.207638,1.195863,9.111274,1.787561,8.976927,2.371806,8.805158,2.946165,
8.596682,3.508241,8.352368,4.055692,8.073235,4.586236,7.760447,5.097661,7.415308,5.587835,7.039255,6.054715,6.633858,6.496354,6.200806,6.910911,5.741904,7.296658,5.259065,7.651988,4.754303,7.975418,4.229721,8.265600,3.687507,8.521325,3.129920,8.741527,2.559285,8.925287,1.977981,9.071840,1.388431,9.180574,0.793094,9.251037,0.194450,9.282935,-0.405005,9.276134,
-1.002771,9.230663,-1.596357,9.146712,-2.183288,9.024630,-2.761117,8.864926,-3.327436,8.668267,-3.879884,8.435472,-4.416157,8.167511,-4.934020,7.865502,-5.431315,7.530704,-5.905968,7.164512,-6.356000,6.768453,-6.779536,6.344177,-7.174809,5.893454,-7.540172,5.418163,-7.874102,4.920285,-8.175207,4.401895,-8.442231,3.865155,-8.674061,3.312302,-8.869732,2.745641,-9.028427,2.167533,
-9.149484,1.580390,-9.232399,0.986659,-9.276827,0.388814,-9.282581,-0.210651,-12.213485,-0.210651,-12.218809,0.170618,-12.190233,0.852424,-12.123642,1.531572,-12.019243,2.205944,-11.877363,2.873437,-11.698444,3.531969,-11.483044,4.179486,-11.231834,4.813970,-10.945598,5.433442,-10.625228,6.035970,-10.271724,6.619674,-9.886188,7.182736,-9.469822,7.723398,-9.023924,8.239975,-8.549886,8.730856,
-8.049185,9.194510,-7.523383,9.629491,-6.974120,10.034443,-6.403108,10.408103,-5.812128,10.749306,-5.203023,11.056987,-4.577693,11.330187,-3.938087,11.568054,-3.286200,11.769847,-2.624066,11.934935,-1.953748,12.062805,-1.277338,12.153058,-0.596944,12.205411,0.085311,12.219702,0.767300,12.195887,0.767300,12.195887,$1*%
G04 Aperture macros list end*
%TA.AperFunction,SMDPad,CuDef*%
%ADD10RoundRect,0.250000X0.450000X-0.325000X0.450000X0.325000X-0.450000X0.325000X-0.450000X-0.325000X0*%
%TD*%
%TA.AperFunction,SMDPad,CuDef*%
%ADD11RoundRect,0.150000X0.512500X0.150000X-0.512500X0.150000X-0.512500X-0.150000X0.512500X-0.150000X0*%
%TD*%
%TA.AperFunction,SMDPad,CuDef*%
%ADD12RoundRect,0.250000X-0.325000X-0.450000X0.325000X-0.450000X0.325000X0.450000X-0.325000X0.450000X0*%
%TD*%
%TA.AperFunction,SMDPad,CuDef*%
%ADD13R,3.000000X2.000000*%
%TD*%
%TA.AperFunction,SMDPad,CuDef*%
%ADD14RoundRect,0.249999X1.425001X-0.450001X1.425001X0.450001X-1.425001X0.450001X-1.425001X-0.450001X0*%
%TD*%
%TA.AperFunction,SMDPad,CuDef*%
%ADD15RoundRect,0.250000X0.450000X-0.350000X0.450000X0.350000X-0.450000X0.350000X-0.450000X-0.350000X0*%
%TD*%
%TA.AperFunction,SMDPad,CuDef*%
%ADD16R,1.200000X2.200000*%
%TD*%
%TA.AperFunction,SMDPad,CuDef*%
%ADD17R,5.800000X6.400000*%
%TD*%
%TA.AperFunction,SMDPad,CuDef*%
%ADD18C,1.524000*%
%TD*%
%TA.AperFunction,ComponentPad*%
%ADD19C,4.940000*%
%TD*%
%TA.AperFunction,HeatsinkPad*%
%ADD20FreePoly0,0.000000*%
%TD*%
%TA.AperFunction,SMDPad,CuDef*%
%ADD21RoundRect,0.250000X0.337500X0.475000X-0.337500X0.475000X-0.337500X-0.475000X0.337500X-0.475000X0*%
%TD*%
%TA.AperFunction,ComponentPad*%
%ADD22O,1.143000X0.857250*%
%TD*%
%TA.AperFunction,ViaPad*%
%ADD23C,1.000000*%
%TD*%
%TA.AperFunction,ViaPad*%
%ADD24C,0.800000*%
%TD*%
%TA.AperFunction,Conductor*%
%ADD25C,0.500000*%
%TD*%
%TA.AperFunction,Conductor*%
%ADD26C,2.000000*%
%TD*%
%TA.AperFunction,Conductor*%
%ADD27C,1.000000*%
%TD*%
%TA.AperFunction,Conductor*%
%ADD28C,0.250000*%
%TD*%
G04 APERTURE END LIST*
D10*
X144300000Y-101325000D03*
X144300000Y-99275000D03*
X144300000Y-97325000D03*
X144300000Y-95275000D03*
D11*
X149137500Y-102590000D03*
X149137500Y-101640000D03*
X149137500Y-100690000D03*
X146862500Y-100690000D03*
X146862500Y-102590000D03*
D12*
X146375000Y-104500000D03*
X148425000Y-104500000D03*
D13*
X152530000Y-93030000D03*
X152000000Y-106950000D03*
D14*
X147900000Y-98640000D03*
X147900000Y-92540000D03*
D15*
X158100000Y-101000000D03*
X158100000Y-99000000D03*
D16*
X155880000Y-95700000D03*
D17*
X153600000Y-102000000D03*
D16*
X153600000Y-95700000D03*
X151320000Y-95700000D03*
D18*
X156096000Y-91364000D03*
X139250000Y-100000000D03*
D19*
X150000000Y-111750000D03*
D18*
X157620000Y-107366000D03*
D19*
X150000000Y-88250000D03*
D20*
X150000000Y-100000000D03*
D18*
X142634000Y-92126000D03*
X160750000Y-100000000D03*
X143142000Y-108128000D03*
D21*
X148437500Y-106800000D03*
X146362500Y-106800000D03*
D15*
X144300000Y-105300000D03*
X144300000Y-103300000D03*
D22*
X142400000Y-98700000D03*
X142400000Y-99970000D03*
X142400000Y-101240000D03*
D23*
X155956000Y-109982000D03*
X138938000Y-101092000D03*
X144780000Y-90932000D03*
X154178000Y-90170000D03*
X143100000Y-108300000D03*
X160600000Y-100700000D03*
X150047000Y-104444000D03*
D24*
X150368000Y-93980000D03*
X157734000Y-96774000D03*
D25*
X149100000Y-103400000D02*
X149900000Y-103400000D01*
X148680000Y-89070000D02*
X150000000Y-87750000D01*
X150200000Y-101900000D02*
X149940000Y-101640000D01*
X144300000Y-105300000D02*
X144300000Y-107100000D01*
X148680000Y-92540000D02*
X148680000Y-91820000D01*
D26*
X148700000Y-91800000D02*
X148700000Y-88000000D01*
D25*
X149900000Y-103400000D02*
X150200000Y-103100000D01*
X148700000Y-89050000D02*
X150000000Y-87750000D01*
X148680000Y-91820000D02*
X148700000Y-91800000D01*
X144348000Y-108128000D02*
X143142000Y-108128000D01*
X144300000Y-107100000D02*
X143100000Y-108300000D01*
X148597500Y-106627500D02*
X148525000Y-106700000D01*
X150000000Y-108175000D02*
X150000000Y-112250000D01*
X150200000Y-103100000D02*
X150200000Y-101900000D01*
X148525000Y-106700000D02*
X150000000Y-108175000D01*
X148597500Y-103902500D02*
X149100000Y-103400000D01*
X149940000Y-101640000D02*
X149249500Y-101640000D01*
X143218000Y-108204000D02*
X143142000Y-108128000D01*
X148597500Y-104440000D02*
X148597500Y-103902500D01*
X148597500Y-104440000D02*
X148597500Y-106627500D01*
D27*
X150047000Y-105968000D02*
X151029000Y-106950000D01*
D25*
X151029000Y-106950000D02*
X152000000Y-106950000D01*
D27*
X150047000Y-104444000D02*
X150047000Y-105968000D01*
D28*
X146798000Y-95504000D02*
X146798000Y-96198000D01*
X145875000Y-95275000D02*
X146798000Y-96198000D01*
X148322000Y-93980000D02*
X146798000Y-95504000D01*
X144300000Y-95275000D02*
X145875000Y-95275000D01*
X148068000Y-100330000D02*
X147560000Y-99822000D01*
X145700000Y-99500000D02*
X145700000Y-98700000D01*
X144300000Y-99275000D02*
X145125000Y-99275000D01*
X146798000Y-96702000D02*
X146798000Y-96802000D01*
X145125000Y-99275000D02*
X145700000Y-98700000D01*
X146022000Y-99822000D02*
X145700000Y-99500000D01*
X146798000Y-96802000D02*
X146798000Y-96902000D01*
X145800000Y-97900000D02*
X145700000Y-98000000D01*
X145700000Y-98000000D02*
X145700000Y-98700000D01*
X150100000Y-93980000D02*
X148322000Y-93980000D01*
X146798000Y-96902000D02*
X145800000Y-97900000D01*
X146798000Y-96198000D02*
X146798000Y-96702000D01*
X147560000Y-99822000D02*
X146022000Y-99822000D01*
X148068000Y-102108000D02*
X148068000Y-100330000D01*
X148550000Y-102590000D02*
X148068000Y-102108000D01*
X145528000Y-103124000D02*
X145038000Y-103614000D01*
X146036000Y-101854000D02*
X145528000Y-102362000D01*
X143700000Y-100200000D02*
X143300000Y-99800000D01*
X146798000Y-101854000D02*
X146036000Y-101854000D01*
X147052000Y-101600000D02*
X146798000Y-101854000D01*
X144300000Y-100500000D02*
X144000000Y-100200000D01*
X144000000Y-100200000D02*
X143700000Y-100200000D01*
X144300000Y-101325000D02*
X144300000Y-100500000D01*
X145528000Y-102362000D02*
X145528000Y-103124000D01*
X145038000Y-103614000D02*
X144512000Y-103614000D01*
X147052000Y-100767500D02*
X147052000Y-101600000D01*
X143300000Y-98325000D02*
X144300000Y-97325000D01*
X144491000Y-101325000D02*
X145528000Y-102362000D01*
X145038000Y-103614000D02*
X145489000Y-103614000D01*
X143300000Y-99800000D02*
X143300000Y-98325000D01*
X145489000Y-103614000D02*
X146375000Y-104500000D01*
X146862500Y-103162500D02*
X147300000Y-103600000D01*
X145000000Y-104200000D02*
X142600000Y-104200000D01*
X146362500Y-106800000D02*
X146200000Y-106800000D01*
X146862500Y-102590000D02*
X146862500Y-103162500D01*
X142252000Y-98552000D02*
X141478000Y-99326000D01*
X146200000Y-106800000D02*
X145400000Y-106000000D01*
X147300000Y-105862500D02*
X146362500Y-106800000D01*
X142000000Y-102600000D02*
X141478000Y-102078000D01*
X145400000Y-104600000D02*
X145000000Y-104200000D01*
X147300000Y-103600000D02*
X147300000Y-105862500D01*
X142000000Y-103600000D02*
X142000000Y-102600000D01*
X145400000Y-106000000D02*
X145400000Y-104600000D01*
X142600000Y-104200000D02*
X142000000Y-103600000D01*
X141478000Y-99326000D02*
X141478000Y-102078000D01*
X142400000Y-98700000D02*
X142252000Y-98552000D01*
D25*
X148412000Y-98640000D02*
X148412000Y-97880000D01*
D28*
X151050000Y-95825000D02*
X151000000Y-95775000D01*
D25*
X148412000Y-99852500D02*
X148412000Y-98640000D01*
D26*
X148412000Y-97192000D02*
X149829000Y-95775000D01*
D28*
X151445000Y-95825000D02*
X151050000Y-95825000D01*
D25*
X149249500Y-100690000D02*
X148412000Y-99852500D01*
D26*
X150097000Y-95775000D02*
X151000000Y-95775000D01*
X148412000Y-97192000D02*
X148412000Y-97880000D01*
D27*
X153700000Y-95750000D02*
X153700000Y-102050000D01*
X153700000Y-94800000D02*
X151930000Y-93030000D01*
D25*
X153700000Y-95775000D02*
X153700000Y-94800000D01*
D28*
X158300000Y-98900000D02*
X158100000Y-99100000D01*
X157734000Y-96774000D02*
X158300000Y-97340000D01*
X158300000Y-97340000D02*
X158300000Y-98900000D01*
X157000000Y-100800000D02*
X157000000Y-96820000D01*
X157000000Y-96820000D02*
X156005000Y-95825000D01*
X157300000Y-101100000D02*
X157000000Y-100800000D01*
X158100000Y-101100000D02*
X157300000Y-101100000D01*
%TA.AperFunction,Conductor*%
G36*
X150257323Y-86276273D02*
G01*
X150274024Y-86278522D01*
X150396245Y-86303402D01*
X150518463Y-86328281D01*
X150534717Y-86332740D01*
X150770334Y-86414681D01*
X150785848Y-86421271D01*
X151008410Y-86533923D01*
X151022901Y-86542520D01*
X151172973Y-86645729D01*
X151228446Y-86683880D01*
X151241664Y-86694339D01*
X151426493Y-86861861D01*
X151438191Y-86873984D01*
X151550547Y-87007215D01*
X151599009Y-87064681D01*
X151608989Y-87078264D01*
X151742916Y-87288722D01*
X151750992Y-87303513D01*
X151855629Y-87529963D01*
X151861660Y-87545703D01*
X151935134Y-87784092D01*
X151939009Y-87800492D01*
X151974536Y-88013730D01*
X151975722Y-88035527D01*
X151976124Y-88040192D01*
X151975619Y-88049154D01*
X151977650Y-88057899D01*
X151977650Y-88057901D01*
X151980997Y-88072315D01*
X151983919Y-88091505D01*
X151984110Y-88094078D01*
X151985674Y-88115192D01*
X151988823Y-88123597D01*
X151988823Y-88123599D01*
X151996686Y-88144589D01*
X152001428Y-88160289D01*
X152004173Y-88172107D01*
X152008536Y-88190896D01*
X152015085Y-88202530D01*
X152020197Y-88211613D01*
X152028387Y-88229214D01*
X152036721Y-88251459D01*
X152055542Y-88276584D01*
X152064492Y-88290309D01*
X152079911Y-88317703D01*
X152096925Y-88334321D01*
X152109715Y-88348902D01*
X152123962Y-88367921D01*
X152131145Y-88373307D01*
X152149085Y-88386759D01*
X152161536Y-88397429D01*
X152177588Y-88413108D01*
X152177590Y-88413110D01*
X152184010Y-88419380D01*
X152204997Y-88430552D01*
X152221370Y-88440961D01*
X152240384Y-88455217D01*
X152269789Y-88466248D01*
X152284733Y-88472995D01*
X152304531Y-88483533D01*
X152304534Y-88483534D01*
X152312460Y-88487753D01*
X152321251Y-88489578D01*
X152321255Y-88489579D01*
X152335731Y-88492584D01*
X152354384Y-88497983D01*
X152376626Y-88506328D01*
X152385577Y-88506995D01*
X152385580Y-88506996D01*
X152400528Y-88508110D01*
X152420242Y-88511163D01*
X153030683Y-88655964D01*
X153037596Y-88657813D01*
X153354434Y-88752304D01*
X153671264Y-88846794D01*
X153678076Y-88849039D01*
X153678079Y-88849040D01*
X154299949Y-89073764D01*
X154306598Y-89076383D01*
X154914693Y-89336137D01*
X154921184Y-89339131D01*
X155229052Y-89491905D01*
X155513496Y-89633056D01*
X155519827Y-89636425D01*
X155664670Y-89718888D01*
X155934872Y-89872722D01*
X155984173Y-89923806D01*
X155998030Y-89993437D01*
X155972041Y-90059507D01*
X155914459Y-90101037D01*
X155883517Y-90107738D01*
X155880113Y-90108036D01*
X155869309Y-90109941D01*
X155665285Y-90164609D01*
X155654993Y-90168355D01*
X155463559Y-90257623D01*
X155454068Y-90263103D01*
X155410235Y-90293794D01*
X155401860Y-90304271D01*
X155408928Y-90317718D01*
X157143003Y-92051793D01*
X157154777Y-92058223D01*
X157166793Y-92048926D01*
X157196897Y-92005932D01*
X157202377Y-91996441D01*
X157291645Y-91805007D01*
X157295391Y-91794715D01*
X157350059Y-91590691D01*
X157351962Y-91579896D01*
X157370372Y-91369475D01*
X157370372Y-91358525D01*
X157351962Y-91148098D01*
X157349612Y-91134773D01*
X157357479Y-91064214D01*
X157402245Y-91009109D01*
X157469696Y-90986954D01*
X157538417Y-91004782D01*
X157553741Y-91015581D01*
X157711641Y-91145466D01*
X157717039Y-91150171D01*
X158202969Y-91598604D01*
X158208099Y-91603616D01*
X158667732Y-92078977D01*
X158672554Y-92084256D01*
X158953715Y-92410281D01*
X159104387Y-92584995D01*
X159108915Y-92590557D01*
X159131488Y-92619962D01*
X159381395Y-92945500D01*
X159511567Y-93115068D01*
X159515763Y-93120869D01*
X159761015Y-93481064D01*
X159887915Y-93667440D01*
X159891781Y-93673481D01*
X160232222Y-94240330D01*
X160235738Y-94246581D01*
X160419282Y-94595787D01*
X160537138Y-94820016D01*
X160543376Y-94831885D01*
X160546528Y-94838321D01*
X160748777Y-95282843D01*
X160820357Y-95440169D01*
X160823136Y-95446766D01*
X160943160Y-95756166D01*
X161062292Y-96063267D01*
X161064694Y-96070025D01*
X161268366Y-96699077D01*
X161270381Y-96705961D01*
X161428119Y-97308131D01*
X161437939Y-97345621D01*
X161439557Y-97352602D01*
X161553480Y-97916742D01*
X161570444Y-98000747D01*
X161571663Y-98007815D01*
X161613283Y-98298255D01*
X161665457Y-98662352D01*
X161666272Y-98669478D01*
X161722670Y-99328298D01*
X161723078Y-99335459D01*
X161728805Y-99536603D01*
X161741685Y-99988917D01*
X161741898Y-99996414D01*
X161741898Y-100003582D01*
X161735479Y-100229018D01*
X161723078Y-100664541D01*
X161722670Y-100671702D01*
X161721702Y-100683007D01*
X161672824Y-101253989D01*
X161666272Y-101330522D01*
X161665458Y-101337643D01*
X161640560Y-101511389D01*
X161571663Y-101992185D01*
X161570444Y-101999252D01*
X161451537Y-102588075D01*
X161439558Y-102647392D01*
X161437940Y-102654373D01*
X161408179Y-102767990D01*
X161270381Y-103294039D01*
X161268366Y-103300923D01*
X161064694Y-103929975D01*
X161062292Y-103936733D01*
X160823141Y-104553221D01*
X160820362Y-104559818D01*
X160546531Y-105161673D01*
X160543376Y-105168115D01*
X160235738Y-105753419D01*
X160232222Y-105759670D01*
X159891781Y-106326519D01*
X159887915Y-106332560D01*
X159852526Y-106384535D01*
X159630049Y-106711283D01*
X159515771Y-106879120D01*
X159511567Y-106884932D01*
X159108915Y-107409443D01*
X159104387Y-107415005D01*
X158672554Y-107915744D01*
X158667732Y-107921023D01*
X158208099Y-108396384D01*
X158202969Y-108401396D01*
X157717039Y-108849829D01*
X157711641Y-108854534D01*
X157395791Y-109114345D01*
X157200971Y-109274599D01*
X157195304Y-109278996D01*
X157010230Y-109414340D01*
X156661561Y-109669322D01*
X156655680Y-109673371D01*
X156100579Y-110032702D01*
X156094469Y-110036415D01*
X155801778Y-110203053D01*
X155519827Y-110363575D01*
X155513496Y-110366944D01*
X155229052Y-110508095D01*
X154921188Y-110660867D01*
X154914693Y-110663863D01*
X154306598Y-110923617D01*
X154299953Y-110926234D01*
X154105455Y-110996520D01*
X153678076Y-111150961D01*
X153671264Y-111153206D01*
X153354434Y-111247696D01*
X153037596Y-111342187D01*
X153030683Y-111344036D01*
X152787310Y-111401766D01*
X152427634Y-111487083D01*
X152404851Y-111490327D01*
X152397876Y-111490676D01*
X152397868Y-111490678D01*
X152388905Y-111491126D01*
X152366447Y-111498930D01*
X152347683Y-111503868D01*
X152333132Y-111506519D01*
X152333128Y-111506520D01*
X152324305Y-111508128D01*
X152316286Y-111512148D01*
X152316283Y-111512149D01*
X152296219Y-111522207D01*
X152281117Y-111528585D01*
X152259930Y-111535948D01*
X152259928Y-111535949D01*
X152251454Y-111538894D01*
X152244144Y-111544101D01*
X152232106Y-111552676D01*
X152215471Y-111562689D01*
X152202246Y-111569319D01*
X152202245Y-111569320D01*
X152194222Y-111573342D01*
X152187654Y-111579451D01*
X152187648Y-111579455D01*
X152171214Y-111594741D01*
X152158515Y-111605096D01*
X152132935Y-111623318D01*
X152118231Y-111641979D01*
X152105079Y-111656255D01*
X152087672Y-111672445D01*
X152083080Y-111680156D01*
X152071594Y-111699443D01*
X152062307Y-111712953D01*
X152042875Y-111737615D01*
X152039523Y-111745937D01*
X152039521Y-111745941D01*
X152033999Y-111759651D01*
X152025386Y-111777037D01*
X152013218Y-111797470D01*
X152010974Y-111806164D01*
X152005365Y-111827893D01*
X152000242Y-111843471D01*
X151988513Y-111872593D01*
X151987632Y-111881525D01*
X151986180Y-111896233D01*
X151982790Y-111915349D01*
X151979602Y-111927700D01*
X151976849Y-111938366D01*
X151977135Y-111947335D01*
X151977135Y-111947336D01*
X151977363Y-111954485D01*
X151975714Y-111979208D01*
X151939011Y-112199504D01*
X151935135Y-112215909D01*
X151861661Y-112454297D01*
X151855631Y-112470035D01*
X151755482Y-112686774D01*
X151750995Y-112696484D01*
X151742917Y-112711278D01*
X151608990Y-112921737D01*
X151599013Y-112935315D01*
X151438185Y-113126024D01*
X151426502Y-113138132D01*
X151270764Y-113279287D01*
X151241664Y-113305662D01*
X151228446Y-113316121D01*
X151022901Y-113457481D01*
X151008411Y-113466078D01*
X150785849Y-113578730D01*
X150770335Y-113585320D01*
X150534718Y-113667261D01*
X150518463Y-113671720D01*
X150274027Y-113721478D01*
X150257323Y-113723728D01*
X150008428Y-113740413D01*
X149991572Y-113740413D01*
X149742677Y-113723728D01*
X149725973Y-113721478D01*
X149481537Y-113671720D01*
X149465282Y-113667261D01*
X149229665Y-113585320D01*
X149214151Y-113578730D01*
X148991589Y-113466078D01*
X148977099Y-113457481D01*
X148771554Y-113316121D01*
X148758336Y-113305662D01*
X148729236Y-113279287D01*
X148573498Y-113138132D01*
X148561815Y-113126024D01*
X148400987Y-112935315D01*
X148391010Y-112921737D01*
X148257083Y-112711278D01*
X148249005Y-112696484D01*
X148244519Y-112686774D01*
X148144369Y-112470035D01*
X148138339Y-112454297D01*
X148064865Y-112215909D01*
X148060989Y-112199504D01*
X148051032Y-112139736D01*
X148025463Y-111986269D01*
X148024276Y-111964471D01*
X148023875Y-111959811D01*
X148024380Y-111950846D01*
X148022350Y-111942106D01*
X148022350Y-111942102D01*
X148019005Y-111927700D01*
X148016083Y-111908508D01*
X148014990Y-111893760D01*
X148014327Y-111884808D01*
X148003311Y-111855400D01*
X147998569Y-111839701D01*
X147993494Y-111817849D01*
X147991463Y-111809104D01*
X147979807Y-111788395D01*
X147971614Y-111770789D01*
X147966430Y-111756949D01*
X147966429Y-111756948D01*
X147963280Y-111748541D01*
X147944451Y-111723406D01*
X147935494Y-111709668D01*
X147933712Y-111706501D01*
X147920088Y-111682297D01*
X147910002Y-111672445D01*
X147903086Y-111665689D01*
X147890285Y-111651096D01*
X147883452Y-111641975D01*
X147876039Y-111632079D01*
X147850907Y-111613235D01*
X147838457Y-111602565D01*
X147822415Y-111586896D01*
X147822413Y-111586894D01*
X147815989Y-111580620D01*
X147795016Y-111569457D01*
X147778629Y-111559039D01*
X147766797Y-111550167D01*
X147766798Y-111550167D01*
X147759617Y-111544783D01*
X147751218Y-111541632D01*
X147751216Y-111541631D01*
X147730202Y-111533748D01*
X147715266Y-111527006D01*
X147687539Y-111512247D01*
X147664277Y-111507418D01*
X147645625Y-111502019D01*
X147637383Y-111498927D01*
X147623375Y-111493672D01*
X147614424Y-111493005D01*
X147614420Y-111493004D01*
X147599481Y-111491891D01*
X147579765Y-111488838D01*
X147548033Y-111481311D01*
X146969318Y-111344035D01*
X146962401Y-111342185D01*
X146328740Y-111153206D01*
X146328737Y-111153205D01*
X146321925Y-111150960D01*
X145700057Y-110926236D01*
X145693392Y-110923611D01*
X145085285Y-110663853D01*
X145078824Y-110660873D01*
X144762762Y-110504032D01*
X144486505Y-110366944D01*
X144480174Y-110363575D01*
X144198223Y-110203053D01*
X143905532Y-110036415D01*
X143899422Y-110032702D01*
X143344321Y-109673371D01*
X143338440Y-109669322D01*
X142989771Y-109414340D01*
X142804697Y-109278996D01*
X142799030Y-109274599D01*
X142604210Y-109114345D01*
X142288360Y-108854534D01*
X142282962Y-108849829D01*
X141797032Y-108401396D01*
X141791902Y-108396384D01*
X141332269Y-107921023D01*
X141327447Y-107915744D01*
X140895614Y-107415005D01*
X140891086Y-107409443D01*
X140488434Y-106884932D01*
X140484230Y-106879120D01*
X140369953Y-106711283D01*
X140147475Y-106384535D01*
X140112086Y-106332560D01*
X140108220Y-106326519D01*
X139767779Y-105759670D01*
X139764263Y-105753419D01*
X139456625Y-105168115D01*
X139453470Y-105161673D01*
X139179639Y-104559818D01*
X139176860Y-104553221D01*
X138937709Y-103936733D01*
X138935307Y-103929975D01*
X138731635Y-103300923D01*
X138729620Y-103294039D01*
X138591822Y-102767990D01*
X138562061Y-102654373D01*
X138560443Y-102647392D01*
X138548465Y-102588075D01*
X138429557Y-101999252D01*
X138428338Y-101992185D01*
X138359441Y-101511389D01*
X138334543Y-101337643D01*
X138333729Y-101330522D01*
X138327178Y-101253989D01*
X138278299Y-100683007D01*
X138277331Y-100671702D01*
X138276923Y-100664541D01*
X138264522Y-100229018D01*
X138258103Y-100003582D01*
X138258103Y-99996414D01*
X138258317Y-99988917D01*
X138271196Y-99536603D01*
X138276923Y-99335459D01*
X138277331Y-99328298D01*
X138279245Y-99305943D01*
X140839780Y-99305943D01*
X140840526Y-99313835D01*
X140843941Y-99349961D01*
X140844500Y-99361819D01*
X140844500Y-101999233D01*
X140843973Y-102010416D01*
X140842298Y-102017909D01*
X140842547Y-102025835D01*
X140842547Y-102025836D01*
X140844438Y-102085986D01*
X140844500Y-102089945D01*
X140844500Y-102117856D01*
X140844997Y-102121790D01*
X140844997Y-102121791D01*
X140845005Y-102121856D01*
X140845938Y-102133693D01*
X140847327Y-102177889D01*
X140850061Y-102187299D01*
X140852978Y-102197339D01*
X140856987Y-102216700D01*
X140859526Y-102236797D01*
X140862445Y-102244168D01*
X140862445Y-102244170D01*
X140875804Y-102277912D01*
X140879649Y-102289142D01*
X140891982Y-102331593D01*
X140896015Y-102338412D01*
X140896017Y-102338417D01*
X140902293Y-102349028D01*
X140910988Y-102366776D01*
X140918448Y-102385617D01*
X140923110Y-102392033D01*
X140923110Y-102392034D01*
X140944436Y-102421387D01*
X140950952Y-102431307D01*
X140968694Y-102461306D01*
X140973458Y-102469362D01*
X140987779Y-102483683D01*
X141000619Y-102498716D01*
X141012528Y-102515107D01*
X141018634Y-102520158D01*
X141046605Y-102543298D01*
X141055384Y-102551288D01*
X141329595Y-102825499D01*
X141363621Y-102887811D01*
X141366500Y-102914594D01*
X141366500Y-103521233D01*
X141365973Y-103532416D01*
X141364298Y-103539909D01*
X141364547Y-103547835D01*
X141364547Y-103547836D01*
X141366438Y-103607986D01*
X141366500Y-103611945D01*
X141366500Y-103639856D01*
X141366997Y-103643790D01*
X141366997Y-103643791D01*
X141367005Y-103643856D01*
X141367938Y-103655693D01*
X141369327Y-103699889D01*
X141374040Y-103716110D01*
X141374978Y-103719339D01*
X141378987Y-103738700D01*
X141381526Y-103758797D01*
X141384445Y-103766168D01*
X141384445Y-103766170D01*
X141397804Y-103799912D01*
X141401649Y-103811142D01*
X141413982Y-103853593D01*
X141418015Y-103860412D01*
X141418017Y-103860417D01*
X141424293Y-103871028D01*
X141432988Y-103888776D01*
X141440448Y-103907617D01*
X141445110Y-103914033D01*
X141445110Y-103914034D01*
X141466436Y-103943387D01*
X141472952Y-103953307D01*
X141495458Y-103991362D01*
X141509779Y-104005683D01*
X141522619Y-104020716D01*
X141534528Y-104037107D01*
X141540634Y-104042158D01*
X141568605Y-104065298D01*
X141577384Y-104073288D01*
X142096343Y-104592247D01*
X142103887Y-104600537D01*
X142108000Y-104607018D01*
X142113777Y-104612443D01*
X142157667Y-104653658D01*
X142160509Y-104656413D01*
X142180230Y-104676134D01*
X142183425Y-104678612D01*
X142192447Y-104686318D01*
X142224679Y-104716586D01*
X142231628Y-104720406D01*
X142242432Y-104726346D01*
X142258956Y-104737199D01*
X142274959Y-104749613D01*
X142315543Y-104767176D01*
X142326173Y-104772383D01*
X142364940Y-104793695D01*
X142372617Y-104795666D01*
X142372622Y-104795668D01*
X142384558Y-104798732D01*
X142403266Y-104805137D01*
X142421855Y-104813181D01*
X142429683Y-104814421D01*
X142429690Y-104814423D01*
X142465524Y-104820099D01*
X142477144Y-104822505D01*
X142512289Y-104831528D01*
X142519970Y-104833500D01*
X142540224Y-104833500D01*
X142559934Y-104835051D01*
X142579943Y-104838220D01*
X142587835Y-104837474D01*
X142623961Y-104834059D01*
X142635819Y-104833500D01*
X144640500Y-104833500D01*
X144708621Y-104853502D01*
X144755114Y-104907158D01*
X144766500Y-104959500D01*
X144766500Y-105921233D01*
X144765973Y-105932416D01*
X144764298Y-105939909D01*
X144764547Y-105947835D01*
X144764547Y-105947836D01*
X144766438Y-106007986D01*
X144766500Y-106011945D01*
X144766500Y-106039856D01*
X144766997Y-106043790D01*
X144766997Y-106043791D01*
X144767005Y-106043856D01*
X144767938Y-106055693D01*
X144769327Y-106099889D01*
X144774978Y-106119339D01*
X144778987Y-106138700D01*
X144780198Y-106148282D01*
X144781526Y-106158797D01*
X144784445Y-106166168D01*
X144784445Y-106166170D01*
X144797804Y-106199912D01*
X144801649Y-106211142D01*
X144813982Y-106253593D01*
X144818015Y-106260412D01*
X144818017Y-106260417D01*
X144824293Y-106271028D01*
X144832988Y-106288776D01*
X144840448Y-106307617D01*
X144845110Y-106314033D01*
X144845110Y-106314034D01*
X144866436Y-106343387D01*
X144872952Y-106353307D01*
X144880552Y-106366157D01*
X144895458Y-106391362D01*
X144909779Y-106405683D01*
X144922619Y-106420716D01*
X144934528Y-106437107D01*
X144940633Y-106442158D01*
X144940638Y-106442163D01*
X144968598Y-106465294D01*
X144977376Y-106473281D01*
X145105980Y-106601884D01*
X145229595Y-106725499D01*
X145263620Y-106787812D01*
X145266500Y-106814595D01*
X145266500Y-107325400D01*
X145266837Y-107328646D01*
X145266837Y-107328650D01*
X145273299Y-107390925D01*
X145277474Y-107431166D01*
X145333450Y-107598946D01*
X145426522Y-107749348D01*
X145551697Y-107874305D01*
X145557927Y-107878145D01*
X145557928Y-107878146D01*
X145695090Y-107962694D01*
X145702262Y-107967115D01*
X145782005Y-107993564D01*
X145863611Y-108020632D01*
X145863613Y-108020632D01*
X145870139Y-108022797D01*
X145876975Y-108023497D01*
X145876978Y-108023498D01*
X145920031Y-108027909D01*
X145974600Y-108033500D01*
X146750400Y-108033500D01*
X146753646Y-108033163D01*
X146753650Y-108033163D01*
X146849308Y-108023238D01*
X146849312Y-108023237D01*
X146856166Y-108022526D01*
X146862702Y-108020345D01*
X146862704Y-108020345D01*
X146994806Y-107976272D01*
X147023946Y-107966550D01*
X147174348Y-107873478D01*
X147299305Y-107748303D01*
X147392115Y-107597738D01*
X147447797Y-107429861D01*
X147449599Y-107412279D01*
X147452909Y-107379969D01*
X147458500Y-107325400D01*
X147458500Y-106652094D01*
X147478502Y-106583973D01*
X147495405Y-106562999D01*
X147692247Y-106366157D01*
X147700537Y-106358613D01*
X147707018Y-106354500D01*
X147712713Y-106348436D01*
X147753658Y-106304833D01*
X147756413Y-106301991D01*
X147776134Y-106282270D01*
X147778612Y-106279075D01*
X147786318Y-106270053D01*
X147811158Y-106243601D01*
X147816586Y-106237821D01*
X147826346Y-106220068D01*
X147837199Y-106203545D01*
X147844753Y-106193806D01*
X147849613Y-106187541D01*
X147867176Y-106146957D01*
X147872383Y-106136327D01*
X147893695Y-106097560D01*
X147895666Y-106089883D01*
X147895668Y-106089878D01*
X147898732Y-106077942D01*
X147905138Y-106059230D01*
X147910033Y-106047919D01*
X147913181Y-106040645D01*
X147914421Y-106032817D01*
X147914423Y-106032810D01*
X147920099Y-105996976D01*
X147922505Y-105985356D01*
X147931528Y-105950211D01*
X147931528Y-105950210D01*
X147933500Y-105942530D01*
X147933500Y-105922276D01*
X147935051Y-105902565D01*
X147936980Y-105890386D01*
X147938220Y-105882557D01*
X147934059Y-105838538D01*
X147933500Y-105826681D01*
X147933500Y-103678763D01*
X147934027Y-103667579D01*
X147935701Y-103660091D01*
X147933562Y-103592032D01*
X147933500Y-103588075D01*
X147933500Y-103560144D01*
X147932994Y-103556138D01*
X147932061Y-103544292D01*
X147930922Y-103508037D01*
X147930673Y-103500110D01*
X147925022Y-103480658D01*
X147921014Y-103461306D01*
X147919468Y-103449068D01*
X147919467Y-103449066D01*
X147918474Y-103441203D01*
X147902194Y-103400086D01*
X147898359Y-103388885D01*
X147886018Y-103346406D01*
X147881985Y-103339587D01*
X147881983Y-103339582D01*
X147875707Y-103328971D01*
X147867010Y-103311220D01*
X147860047Y-103293633D01*
X147853568Y-103222934D01*
X147888104Y-103158156D01*
X147899453Y-103146807D01*
X147901706Y-103142998D01*
X147957996Y-103102345D01*
X148028888Y-103098494D01*
X148090609Y-103133582D01*
X148097276Y-103141276D01*
X148100547Y-103146807D01*
X148218193Y-103264453D01*
X148225017Y-103268489D01*
X148225020Y-103268491D01*
X148312851Y-103320434D01*
X148361399Y-103349145D01*
X148369010Y-103351356D01*
X148369012Y-103351357D01*
X148378151Y-103354012D01*
X148521169Y-103395562D01*
X148527574Y-103396066D01*
X148527579Y-103396067D01*
X148556042Y-103398307D01*
X148556050Y-103398307D01*
X148558498Y-103398500D01*
X149380005Y-103398500D01*
X149448126Y-103418502D01*
X149494619Y-103472158D01*
X149504723Y-103542432D01*
X149475229Y-103607012D01*
X149458965Y-103622690D01*
X149337975Y-103719968D01*
X149210846Y-103871474D01*
X149207879Y-103876872D01*
X149207875Y-103876877D01*
X149129095Y-104020180D01*
X149115567Y-104044787D01*
X149113706Y-104050654D01*
X149113705Y-104050656D01*
X149107862Y-104069077D01*
X149055765Y-104233306D01*
X149043624Y-104341550D01*
X149033719Y-104429851D01*
X149034235Y-104435995D01*
X149038058Y-104481524D01*
X149038500Y-104492067D01*
X149038500Y-105906157D01*
X149037763Y-105919764D01*
X149034456Y-105950211D01*
X149033676Y-105957388D01*
X149034213Y-105963523D01*
X149038050Y-106007388D01*
X149038379Y-106012214D01*
X149038500Y-106014686D01*
X149038500Y-106017769D01*
X149038801Y-106020837D01*
X149042690Y-106060506D01*
X149042812Y-106061819D01*
X149050913Y-106154413D01*
X149052400Y-106159532D01*
X149052920Y-106164833D01*
X149079791Y-106253834D01*
X149080126Y-106254967D01*
X149102670Y-106332560D01*
X149106091Y-106344336D01*
X149108544Y-106349068D01*
X149110084Y-106354169D01*
X149112978Y-106359612D01*
X149153731Y-106436260D01*
X149154343Y-106437426D01*
X149168789Y-106465294D01*
X149197108Y-106519926D01*
X149200431Y-106524089D01*
X149202934Y-106528796D01*
X149261755Y-106600918D01*
X149262446Y-106601774D01*
X149293738Y-106640973D01*
X149296242Y-106643477D01*
X149296884Y-106644195D01*
X149300585Y-106648528D01*
X149327935Y-106682062D01*
X149363267Y-106711291D01*
X149372037Y-106719272D01*
X149954595Y-107301829D01*
X149988620Y-107364142D01*
X149991500Y-107390925D01*
X149991500Y-107998134D01*
X149998255Y-108060316D01*
X150049385Y-108196705D01*
X150136739Y-108313261D01*
X150253295Y-108400615D01*
X150389684Y-108451745D01*
X150451866Y-108458500D01*
X153548134Y-108458500D01*
X153610316Y-108451745D01*
X153746705Y-108400615D01*
X153863261Y-108313261D01*
X153950615Y-108196705D01*
X154001745Y-108060316D01*
X154008500Y-107998134D01*
X154008500Y-105901866D01*
X154002660Y-105848108D01*
X154015188Y-105778225D01*
X154063509Y-105726210D01*
X154127923Y-105708500D01*
X156548134Y-105708500D01*
X156610316Y-105701745D01*
X156746705Y-105650615D01*
X156863261Y-105563261D01*
X156950615Y-105446705D01*
X157001745Y-105310316D01*
X157008500Y-105248134D01*
X157008500Y-102071309D01*
X157028502Y-102003188D01*
X157082158Y-101956695D01*
X157152432Y-101946591D01*
X157200616Y-101964049D01*
X157320090Y-102037694D01*
X157327262Y-102042115D01*
X157387268Y-102062018D01*
X157488611Y-102095632D01*
X157488613Y-102095632D01*
X157495139Y-102097797D01*
X157501975Y-102098497D01*
X157501978Y-102098498D01*
X157544593Y-102102864D01*
X157599600Y-102108500D01*
X158600400Y-102108500D01*
X158603646Y-102108163D01*
X158603650Y-102108163D01*
X158699308Y-102098238D01*
X158699312Y-102098237D01*
X158706166Y-102097526D01*
X158712702Y-102095345D01*
X158712704Y-102095345D01*
X158844806Y-102051272D01*
X158873946Y-102041550D01*
X159024348Y-101948478D01*
X159149305Y-101823303D01*
X159153146Y-101817072D01*
X159238275Y-101678968D01*
X159238276Y-101678966D01*
X159242115Y-101672738D01*
X159297797Y-101504861D01*
X159308500Y-101400400D01*
X159308500Y-100599600D01*
X159301474Y-100531880D01*
X159298238Y-100500692D01*
X159298237Y-100500688D01*
X159297526Y-100493834D01*
X159291566Y-100475968D01*
X159243868Y-100333002D01*
X159241550Y-100326054D01*
X159148478Y-100175652D01*
X159061891Y-100089216D01*
X159027812Y-100026934D01*
X159032815Y-99956114D01*
X159061736Y-99911025D01*
X159144134Y-99828483D01*
X159149305Y-99823303D01*
X159175042Y-99781550D01*
X159238275Y-99678968D01*
X159238276Y-99678966D01*
X159242115Y-99672738D01*
X159297797Y-99504861D01*
X159308500Y-99400400D01*
X159308500Y-98599600D01*
X159297526Y-98493834D01*
X159241550Y-98326054D01*
X159148478Y-98175652D01*
X159023303Y-98050695D01*
X158993382Y-98032251D01*
X158945890Y-97979478D01*
X158933500Y-97924992D01*
X158933500Y-97418767D01*
X158934027Y-97407584D01*
X158935702Y-97400091D01*
X158933562Y-97332000D01*
X158933500Y-97328043D01*
X158933500Y-97300144D01*
X158932996Y-97296153D01*
X158932063Y-97284311D01*
X158931530Y-97267329D01*
X158930674Y-97240111D01*
X158928462Y-97232497D01*
X158928461Y-97232492D01*
X158925023Y-97220659D01*
X158921012Y-97201295D01*
X158919467Y-97189064D01*
X158918474Y-97181203D01*
X158915557Y-97173836D01*
X158915556Y-97173831D01*
X158902198Y-97140092D01*
X158898354Y-97128865D01*
X158888230Y-97094022D01*
X158886018Y-97086407D01*
X158875707Y-97068972D01*
X158867012Y-97051224D01*
X158859552Y-97032383D01*
X158833564Y-96996613D01*
X158827048Y-96986693D01*
X158808580Y-96955465D01*
X158808578Y-96955462D01*
X158804542Y-96948638D01*
X158790221Y-96934317D01*
X158777380Y-96919283D01*
X158770132Y-96909307D01*
X158765472Y-96902893D01*
X158731401Y-96874707D01*
X158722622Y-96866718D01*
X158681122Y-96825218D01*
X158647096Y-96762906D01*
X158644907Y-96749293D01*
X158628232Y-96590635D01*
X158628232Y-96590633D01*
X158627542Y-96584072D01*
X158568527Y-96402444D01*
X158473040Y-96237056D01*
X158440808Y-96201258D01*
X158349675Y-96100045D01*
X158349674Y-96100044D01*
X158345253Y-96095134D01*
X158190752Y-95982882D01*
X158184724Y-95980198D01*
X158184722Y-95980197D01*
X158022319Y-95907891D01*
X158022318Y-95907891D01*
X158016288Y-95905206D01*
X157922888Y-95885353D01*
X157835944Y-95866872D01*
X157835939Y-95866872D01*
X157829487Y-95865500D01*
X157638513Y-95865500D01*
X157632061Y-95866872D01*
X157632056Y-95866872D01*
X157545112Y-95885353D01*
X157451712Y-95905206D01*
X157445682Y-95907891D01*
X157445681Y-95907891D01*
X157283278Y-95980197D01*
X157283276Y-95980198D01*
X157277248Y-95982882D01*
X157271910Y-95986760D01*
X157271907Y-95986762D01*
X157237777Y-96011559D01*
X157170909Y-96035417D01*
X157101757Y-96019335D01*
X157074622Y-95998717D01*
X157025405Y-95949500D01*
X156991379Y-95887188D01*
X156988500Y-95860405D01*
X156988500Y-94551866D01*
X156981745Y-94489684D01*
X156930615Y-94353295D01*
X156843261Y-94236739D01*
X156726705Y-94149385D01*
X156590316Y-94098255D01*
X156528134Y-94091500D01*
X155231866Y-94091500D01*
X155169684Y-94098255D01*
X155033295Y-94149385D01*
X154916739Y-94236739D01*
X154911358Y-94243919D01*
X154911357Y-94243920D01*
X154840826Y-94338029D01*
X154783967Y-94380544D01*
X154713148Y-94385570D01*
X154650855Y-94351510D01*
X154639174Y-94338029D01*
X154568643Y-94243920D01*
X154568642Y-94243919D01*
X154563261Y-94236739D01*
X154564052Y-94236146D01*
X154533854Y-94180845D01*
X154534267Y-94140590D01*
X154531745Y-94140316D01*
X154538131Y-94081531D01*
X154538500Y-94078134D01*
X154538500Y-92422777D01*
X155401777Y-92422777D01*
X155411074Y-92434793D01*
X155454069Y-92464898D01*
X155463555Y-92470376D01*
X155654993Y-92559645D01*
X155665285Y-92563391D01*
X155869309Y-92618059D01*
X155880104Y-92619962D01*
X156090525Y-92638372D01*
X156101475Y-92638372D01*
X156311896Y-92619962D01*
X156322691Y-92618059D01*
X156526715Y-92563391D01*
X156537007Y-92559645D01*
X156728445Y-92470376D01*
X156737931Y-92464898D01*
X156781764Y-92434207D01*
X156790139Y-92423729D01*
X156783071Y-92410281D01*
X156108812Y-91736022D01*
X156094868Y-91728408D01*
X156093035Y-91728539D01*
X156086420Y-91732790D01*
X155408207Y-92411003D01*
X155401777Y-92422777D01*
X154538500Y-92422777D01*
X154538500Y-91981866D01*
X154531745Y-91919684D01*
X154480615Y-91783295D01*
X154393261Y-91666739D01*
X154276705Y-91579385D01*
X154140316Y-91528255D01*
X154078134Y-91521500D01*
X150981866Y-91521500D01*
X150919684Y-91528255D01*
X150783295Y-91579385D01*
X150666739Y-91666739D01*
X150579385Y-91783295D01*
X150528255Y-91919684D01*
X150521500Y-91981866D01*
X150521500Y-92945500D01*
X150501498Y-93013621D01*
X150447842Y-93060114D01*
X150395500Y-93071500D01*
X150272513Y-93071500D01*
X150266061Y-93072872D01*
X150266056Y-93072872D01*
X150179113Y-93091353D01*
X150085712Y-93111206D01*
X150079682Y-93113891D01*
X150079681Y-93113891D01*
X149917278Y-93186197D01*
X149917276Y-93186198D01*
X149911248Y-93188882D01*
X149756747Y-93301134D01*
X149752332Y-93306037D01*
X149747420Y-93310460D01*
X149746295Y-93309211D01*
X149692986Y-93342051D01*
X149659800Y-93346500D01*
X148400763Y-93346500D01*
X148389579Y-93345973D01*
X148382091Y-93344299D01*
X148374168Y-93344548D01*
X148314033Y-93346438D01*
X148310075Y-93346500D01*
X148282144Y-93346500D01*
X148278229Y-93346995D01*
X148278225Y-93346995D01*
X148278167Y-93347003D01*
X148278138Y-93347006D01*
X148266296Y-93347939D01*
X148222110Y-93349327D01*
X148204744Y-93354372D01*
X148202658Y-93354978D01*
X148183306Y-93358986D01*
X148171068Y-93360532D01*
X148171066Y-93360533D01*
X148163203Y-93361526D01*
X148122086Y-93377806D01*
X148110885Y-93381641D01*
X148068406Y-93393982D01*
X148061587Y-93398015D01*
X148061582Y-93398017D01*
X148050971Y-93404293D01*
X148033221Y-93412990D01*
X148014383Y-93420448D01*
X148007967Y-93425109D01*
X148007966Y-93425110D01*
X147978625Y-93446428D01*
X147968701Y-93452947D01*
X147937460Y-93471422D01*
X147937455Y-93471426D01*
X147930637Y-93475458D01*
X147916313Y-93489782D01*
X147901281Y-93502621D01*
X147884893Y-93514528D01*
X147856712Y-93548593D01*
X147848722Y-93557373D01*
X146541585Y-94864510D01*
X146479273Y-94898536D01*
X146408458Y-94893471D01*
X146366238Y-94867266D01*
X146317350Y-94821358D01*
X146314507Y-94818602D01*
X146294770Y-94798865D01*
X146291573Y-94796385D01*
X146282551Y-94788680D01*
X146256100Y-94763841D01*
X146250321Y-94758414D01*
X146243375Y-94754595D01*
X146243372Y-94754593D01*
X146232566Y-94748652D01*
X146216047Y-94737801D01*
X146215583Y-94737441D01*
X146200041Y-94725386D01*
X146192772Y-94722241D01*
X146192768Y-94722238D01*
X146159463Y-94707826D01*
X146148813Y-94702609D01*
X146110060Y-94681305D01*
X146090437Y-94676267D01*
X146071734Y-94669863D01*
X146060420Y-94664967D01*
X146060419Y-94664967D01*
X146053145Y-94661819D01*
X146045322Y-94660580D01*
X146045312Y-94660577D01*
X146009476Y-94654901D01*
X145997856Y-94652495D01*
X145962711Y-94643472D01*
X145962710Y-94643472D01*
X145955030Y-94641500D01*
X145934776Y-94641500D01*
X145915065Y-94639949D01*
X145902886Y-94638020D01*
X145895057Y-94636780D01*
X145887165Y-94637526D01*
X145851039Y-94640941D01*
X145839181Y-94641500D01*
X145521311Y-94641500D01*
X145453190Y-94621498D01*
X145414167Y-94581804D01*
X145397755Y-94555283D01*
X145348478Y-94475652D01*
X145223303Y-94350695D01*
X145202755Y-94338029D01*
X145078968Y-94261725D01*
X145078966Y-94261724D01*
X145072738Y-94257885D01*
X144912254Y-94204655D01*
X144911389Y-94204368D01*
X144911387Y-94204368D01*
X144904861Y-94202203D01*
X144898025Y-94201503D01*
X144898022Y-94201502D01*
X144854969Y-94197091D01*
X144800400Y-94191500D01*
X143799600Y-94191500D01*
X143796354Y-94191837D01*
X143796350Y-94191837D01*
X143700692Y-94201762D01*
X143700688Y-94201763D01*
X143693834Y-94202474D01*
X143687298Y-94204655D01*
X143687296Y-94204655D01*
X143561630Y-94246581D01*
X143526054Y-94258450D01*
X143375652Y-94351522D01*
X143250695Y-94476697D01*
X143246855Y-94482927D01*
X143246854Y-94482928D01*
X143177287Y-94595787D01*
X143157885Y-94627262D01*
X143102203Y-94795139D01*
X143101503Y-94801975D01*
X143101502Y-94801978D01*
X143098438Y-94831885D01*
X143091500Y-94899600D01*
X143091500Y-95650400D01*
X143102474Y-95756166D01*
X143104655Y-95762702D01*
X143104655Y-95762704D01*
X143146187Y-95887188D01*
X143158450Y-95923946D01*
X143251522Y-96074348D01*
X143376697Y-96199305D01*
X143380916Y-96201906D01*
X143421417Y-96259030D01*
X143424649Y-96329953D01*
X143389024Y-96391365D01*
X143381470Y-96397922D01*
X143375652Y-96401522D01*
X143250695Y-96526697D01*
X143157885Y-96677262D01*
X143102203Y-96845139D01*
X143091500Y-96949600D01*
X143091500Y-97585405D01*
X143071498Y-97653526D01*
X143054595Y-97674500D01*
X142953398Y-97775697D01*
X142891086Y-97809723D01*
X142825368Y-97806435D01*
X142745069Y-97780345D01*
X142745068Y-97780345D01*
X142738787Y-97778304D01*
X142732224Y-97777614D01*
X142732223Y-97777614D01*
X142705717Y-97774828D01*
X142591989Y-97762875D01*
X142208011Y-97762875D01*
X142094283Y-97774828D01*
X142067777Y-97777614D01*
X142067776Y-97777614D01*
X142061213Y-97778304D01*
X142054936Y-97780344D01*
X142054934Y-97780344D01*
X142054931Y-97780345D01*
X141873862Y-97839178D01*
X141868140Y-97842481D01*
X141868139Y-97842482D01*
X141827312Y-97866054D01*
X141703263Y-97937674D01*
X141698356Y-97942092D01*
X141698355Y-97942093D01*
X141577740Y-98050695D01*
X141556869Y-98069487D01*
X141552988Y-98074829D01*
X141552986Y-98074831D01*
X141483494Y-98170479D01*
X141441081Y-98228856D01*
X141438397Y-98234884D01*
X141438396Y-98234886D01*
X141394712Y-98333002D01*
X141360957Y-98408817D01*
X141359585Y-98415274D01*
X141331379Y-98547970D01*
X141297227Y-98610868D01*
X141085747Y-98822348D01*
X141077461Y-98829888D01*
X141070982Y-98834000D01*
X141065557Y-98839777D01*
X141024357Y-98883651D01*
X141021602Y-98886493D01*
X141001865Y-98906230D01*
X140999385Y-98909427D01*
X140991682Y-98918447D01*
X140961414Y-98950679D01*
X140957595Y-98957625D01*
X140957593Y-98957628D01*
X140951652Y-98968434D01*
X140940801Y-98984953D01*
X140928386Y-99000959D01*
X140925241Y-99008228D01*
X140925238Y-99008232D01*
X140910826Y-99041537D01*
X140905609Y-99052187D01*
X140884305Y-99090940D01*
X140882334Y-99098615D01*
X140882334Y-99098616D01*
X140879267Y-99110562D01*
X140872863Y-99129266D01*
X140868045Y-99140401D01*
X140864819Y-99147855D01*
X140863580Y-99155678D01*
X140863577Y-99155688D01*
X140857901Y-99191524D01*
X140855495Y-99203144D01*
X140844500Y-99245970D01*
X140844500Y-99266224D01*
X140842949Y-99285934D01*
X140839780Y-99305943D01*
X138279245Y-99305943D01*
X138333729Y-98669478D01*
X138334544Y-98662352D01*
X138386719Y-98298255D01*
X138428338Y-98007815D01*
X138429557Y-98000747D01*
X138446521Y-97916742D01*
X138560444Y-97352602D01*
X138562062Y-97345621D01*
X138571883Y-97308131D01*
X138729620Y-96705961D01*
X138731635Y-96699077D01*
X138935307Y-96070025D01*
X138937709Y-96063267D01*
X139056841Y-95756166D01*
X139176865Y-95446766D01*
X139179644Y-95440169D01*
X139251225Y-95282843D01*
X139453473Y-94838321D01*
X139456625Y-94831885D01*
X139462864Y-94820016D01*
X139580719Y-94595787D01*
X139764263Y-94246581D01*
X139767779Y-94240330D01*
X140108220Y-93673481D01*
X140112086Y-93667440D01*
X140238986Y-93481064D01*
X140484238Y-93120869D01*
X140488434Y-93115068D01*
X140618607Y-92945500D01*
X140868513Y-92619962D01*
X140891086Y-92590557D01*
X140895614Y-92584995D01*
X141046286Y-92410281D01*
X141327447Y-92084256D01*
X141332269Y-92078977D01*
X141791902Y-91603616D01*
X141797032Y-91598604D01*
X142045320Y-91369475D01*
X154821628Y-91369475D01*
X154840038Y-91579896D01*
X154841941Y-91590691D01*
X154896609Y-91794715D01*
X154900355Y-91805007D01*
X154989623Y-91996441D01*
X154995103Y-92005932D01*
X155025794Y-92049765D01*
X155036271Y-92058140D01*
X155049718Y-92051072D01*
X155723978Y-91376812D01*
X155731592Y-91362868D01*
X155731461Y-91361035D01*
X155727210Y-91354420D01*
X155048997Y-90676207D01*
X155037223Y-90669777D01*
X155025207Y-90679074D01*
X154995103Y-90722068D01*
X154989623Y-90731559D01*
X154900355Y-90922993D01*
X154896609Y-90933285D01*
X154841941Y-91137309D01*
X154840038Y-91148104D01*
X154821628Y-91358525D01*
X154821628Y-91369475D01*
X142045320Y-91369475D01*
X142282962Y-91150171D01*
X142288360Y-91145466D01*
X142604210Y-90885655D01*
X142799030Y-90725401D01*
X142804697Y-90721004D01*
X142989771Y-90585660D01*
X143338440Y-90330678D01*
X143344321Y-90326629D01*
X143899422Y-89967298D01*
X143905532Y-89963585D01*
X144235361Y-89775804D01*
X144480174Y-89636425D01*
X144486505Y-89633056D01*
X144762762Y-89495968D01*
X145078824Y-89339127D01*
X145085285Y-89336147D01*
X145693402Y-89076385D01*
X145700057Y-89073764D01*
X146321925Y-88849040D01*
X146328737Y-88846795D01*
X146934872Y-88666025D01*
X146962405Y-88657814D01*
X146969318Y-88655965D01*
X147572370Y-88512916D01*
X147595159Y-88509671D01*
X147596669Y-88509595D01*
X147611096Y-88508874D01*
X147633554Y-88501069D01*
X147652320Y-88496131D01*
X147654249Y-88495780D01*
X147675696Y-88491872D01*
X147703779Y-88477793D01*
X147718879Y-88471417D01*
X147740061Y-88464056D01*
X147740063Y-88464055D01*
X147748546Y-88461107D01*
X147756815Y-88455217D01*
X147767902Y-88447320D01*
X147784534Y-88437309D01*
X147797754Y-88430681D01*
X147805779Y-88426658D01*
X147828785Y-88405260D01*
X147841487Y-88394903D01*
X147859753Y-88381892D01*
X147859756Y-88381889D01*
X147867066Y-88376682D01*
X147881770Y-88358021D01*
X147894925Y-88343742D01*
X147912329Y-88327555D01*
X147928407Y-88300557D01*
X147937694Y-88287047D01*
X147951573Y-88269432D01*
X147957126Y-88262385D01*
X147960478Y-88254063D01*
X147960480Y-88254059D01*
X147966002Y-88240349D01*
X147974615Y-88222963D01*
X147986783Y-88202530D01*
X147994636Y-88172106D01*
X147999760Y-88156527D01*
X148008135Y-88135733D01*
X148008135Y-88135731D01*
X148011488Y-88127407D01*
X148013821Y-88103767D01*
X148017211Y-88084651D01*
X148020909Y-88070325D01*
X148020909Y-88070322D01*
X148023152Y-88061634D01*
X148022638Y-88045515D01*
X148024287Y-88020792D01*
X148051032Y-87860265D01*
X148060991Y-87800493D01*
X148064866Y-87784092D01*
X148138340Y-87545703D01*
X148144371Y-87529963D01*
X148249008Y-87303513D01*
X148257084Y-87288722D01*
X148391011Y-87078264D01*
X148400991Y-87064681D01*
X148449453Y-87007215D01*
X148561809Y-86873984D01*
X148573507Y-86861861D01*
X148758336Y-86694339D01*
X148771554Y-86683880D01*
X148827027Y-86645729D01*
X148977099Y-86542520D01*
X148991590Y-86533923D01*
X149214152Y-86421271D01*
X149229666Y-86414681D01*
X149465283Y-86332740D01*
X149481537Y-86328281D01*
X149603754Y-86303402D01*
X149725976Y-86278522D01*
X149742677Y-86276273D01*
X149991572Y-86259588D01*
X150008428Y-86259588D01*
X150257323Y-86276273D01*
G37*
%TD.AperFunction*%
%TA.AperFunction,Conductor*%
G36*
X150137508Y-101402301D02*
G01*
X150181978Y-101457645D01*
X150191500Y-101505697D01*
X150191500Y-101774303D01*
X150171498Y-101842424D01*
X150117842Y-101888917D01*
X150047568Y-101899021D01*
X150001364Y-101882758D01*
X149913601Y-101830855D01*
X149905990Y-101828644D01*
X149905988Y-101828643D01*
X149853769Y-101813472D01*
X149753831Y-101784438D01*
X149747426Y-101783934D01*
X149747421Y-101783933D01*
X149718958Y-101781693D01*
X149718950Y-101781693D01*
X149716502Y-101781500D01*
X148827500Y-101781500D01*
X148759379Y-101761498D01*
X148712886Y-101707842D01*
X148701500Y-101655500D01*
X148701500Y-101624500D01*
X148721502Y-101556379D01*
X148775158Y-101509886D01*
X148827500Y-101498500D01*
X149716502Y-101498500D01*
X149718950Y-101498307D01*
X149718958Y-101498307D01*
X149747421Y-101496067D01*
X149747426Y-101496066D01*
X149753831Y-101495562D01*
X149884344Y-101457645D01*
X149905988Y-101451357D01*
X149905990Y-101451356D01*
X149913601Y-101449145D01*
X150001363Y-101397242D01*
X150070177Y-101379784D01*
X150137508Y-101402301D01*
G37*
%TD.AperFunction*%
%TA.AperFunction,Conductor*%
G36*
X142607086Y-99657127D02*
G01*
X142653579Y-99710783D01*
X142664903Y-99759165D01*
X142666438Y-99807985D01*
X142666500Y-99811945D01*
X142666500Y-99839856D01*
X142666997Y-99843790D01*
X142666997Y-99843791D01*
X142667005Y-99843856D01*
X142667938Y-99855693D01*
X142669327Y-99899889D01*
X142674978Y-99919339D01*
X142678987Y-99938700D01*
X142681526Y-99958797D01*
X142684445Y-99966168D01*
X142684445Y-99966170D01*
X142697804Y-99999912D01*
X142701649Y-100011142D01*
X142713982Y-100053593D01*
X142718015Y-100060412D01*
X142718017Y-100060417D01*
X142724293Y-100071028D01*
X142732988Y-100088776D01*
X142740448Y-100107617D01*
X142745106Y-100114029D01*
X142748573Y-100120335D01*
X142763861Y-100189667D01*
X142739238Y-100256257D01*
X142682523Y-100298964D01*
X142624987Y-100306343D01*
X142610020Y-100304770D01*
X142591989Y-100302875D01*
X142237500Y-100302875D01*
X142169379Y-100282873D01*
X142122886Y-100229217D01*
X142111500Y-100176875D01*
X142111500Y-99763125D01*
X142131502Y-99695004D01*
X142185158Y-99648511D01*
X142237500Y-99637125D01*
X142538965Y-99637125D01*
X142607086Y-99657127D01*
G37*
%TD.AperFunction*%
M02*
